<svg xmlns="http://www.w3.org/2000/svg" xmlns:xlink="http://www.w3.org/1999/xlink" viewBox="0 0 620 341.59"><defs><style>.cls-1{isolation:isolate;}.cls-2{fill:url(#linear-gradient);}.cls-3{fill:none;}.cls-3,.cls-5{stroke:#231f20;stroke-miterlimit:10;}.cls-4{font-size:14px;font-family:OpenSans, Open Sans;}.cls-4,.cls-7,.cls-8{fill:#231f20;}.cls-5{fill:#fff;stroke-width:0.25px;}.cls-6{font-size:39px;}.cls-26,.cls-27,.cls-6{fill:#ce0e2d;}.cls-6,.cls-8,.cls-9{font-family:OpenSans-Bold, Open Sans;font-weight:700;}.cls-7{font-size:27.1px;}.cls-8,.cls-9{font-size:17.67px;}.cls-9{fill:#ed2124;}.cls-10{fill:#d1d7d6;}.cls-10,.cls-13,.cls-14,.cls-16{mix-blend-mode:multiply;}.cls-11{fill:#404040;}.cls-12,.cls-13,.cls-14,.cls-15,.cls-16,.cls-17,.cls-18,.cls-19,.cls-20,.cls-21,.cls-22{fill:#f2978e;}.cls-13{opacity:0.4;}.cls-14,.cls-18{opacity:0.3;}.cls-15{opacity:0.6;}.cls-17{mix-blend-mode:color-burn;}.cls-19,.cls-20{mix-blend-mode:screen;}.cls-20{opacity:0.9;}.cls-21,.cls-24{opacity:0.1;}.cls-22,.cls-25,.cls-27{opacity:0.2;}.cls-23,.cls-24,.cls-25{fill:gray;}</style><linearGradient id="linear-gradient" x1="307.52" y1="341.59" x2="307.52" gradientUnits="userSpaceOnUse"><stop offset="0" stop-color="#c7c8ca"/><stop offset="0.1" stop-color="#dbdcdd"/><stop offset="0.24" stop-color="#efeff0"/><stop offset="0.38" stop-color="#fbfbfb"/><stop offset="0.52" stop-color="#fff"/><stop offset="0.6" stop-color="#fbfbfb"/><stop offset="0.69" stop-color="#efefef"/><stop offset="0.78" stop-color="#dadada"/><stop offset="0.86" stop-color="#bdbdbd"/><stop offset="0.95" stop-color="#999"/><stop offset="1" stop-color="gray"/></linearGradient></defs><g class="cls-1"><g id="Layer_1" data-name="Layer 1"><rect class="cls-2" width="615.04" height="341.59"/><polyline class="cls-3" points="149.98 176.26 247.31 176.26 269.08 207.12 249.29 242.33 84.75 242.33"/><text class="cls-4" transform="translate(12.57 42.43)">With these in mind, here’s how distancing measures can control the spread of the disease:</text><ellipse class="cls-5" cx="60.99" cy="241.14" rx="23.77" ry="8.7"/><text class="cls-6" transform="translate(8.16 95.47)">75%<tspan class="cls-7" x="79.66" y="0" xml:space="preserve"> REDUCTION IN PHYSICAL DISTANCING</tspan></text><text class="cls-8" transform="translate(39.72 140.66)">DAY 1</text><text class="cls-8" transform="translate(314.2 140.66)">DAY 5</text><text class="cls-8" transform="translate(470.42 140.66)">DAY 30</text><text class="cls-8" transform="translate(25.82 277.1)">1 Person</text><text class="cls-8" transform="translate(276.72 277.1)">0.625 People</text><text class="cls-9" transform="translate(289.32 295.88)">INFECTED</text><text class="cls-8" transform="translate(450.46 277.1)">2.5 People</text><text class="cls-9" transform="translate(452.97 295.88)">INFECTED</text><path class="cls-10" d="M50.17,236.57a4.08,4.08,0,0,1,1.58-1.66,14.18,14.18,0,0,1,3.13-1.27,8.13,8.13,0,0,1,3.2-.43A5.74,5.74,0,0,1,61,234.46a3.16,3.16,0,0,0,1.78.64,11.8,11.8,0,0,0,2.29-.25,6,6,0,0,1,3.95.51,3.28,3.28,0,0,1,1.78,2.71,3.23,3.23,0,0,1-.53,1.55,6.89,6.89,0,0,1-3.2,2.25,13.58,13.58,0,0,1-2.5.75,8.81,8.81,0,0,1-2.75.26,6.47,6.47,0,0,1-4-1.84,6.68,6.68,0,0,0-1.33-1.16,2.83,2.83,0,0,0-2.08-.22,5.65,5.65,0,0,1-2.37.28,2.66,2.66,0,0,1-1.83-1.23A2.17,2.17,0,0,1,50.17,236.57Z" transform="translate(0.19 1.35)"/><path class="cls-11" d="M60.57,233.74h0c0-.19,0-3,0-3.15l-2.7-.68a7.37,7.37,0,0,1-1.81,2.59,17.6,17.6,0,0,1-2.73,2.13c-.59.37-1.37.53-1.56,1.25s.64,1.43,2.15,1.29a5.71,5.71,0,0,0,1.36-.3,8,8,0,0,0,1.7-.77c.64-.29,1.82-.7,2.36-.94A1.78,1.78,0,0,0,60.57,233.74Z" transform="translate(0.19 1.35)"/><path class="cls-11" d="M60.63,233.41h0a1.79,1.79,0,0,1-1.21,1.41c-.53.24-1.75.62-2.39.91a9.4,9.4,0,0,1-1.7.79l-.22.07a5.66,5.66,0,0,1-1.11.24c-1.51.14-2.44-.25-2.23-1.06.17-.65.88-1,1.45-1.37l.19-.11a17.27,17.27,0,0,0,2.73-2.13A7.55,7.55,0,0,0,58,229.58c1.6-.76,2.69.08,2.71.68S60.63,233.22,60.63,233.41Z" transform="translate(0.19 1.35)"/><path class="cls-11" d="M55.11,236.51v.09a5.66,5.66,0,0,1-1.11.24c-1.51.14-2.44-.25-2.23-1.06.17-.65.88-1,1.45-1.37A2.42,2.42,0,0,1,55.11,236.51Z" transform="translate(0.19 1.35)"/><path class="cls-11" d="M55,195c.2,1-.6,2.29-.55,3.26A4.44,4.44,0,0,0,55.2,200s0,0,0,0c.26-1.48,1.85-2.05.71-3.66C55.68,196.06,55,195,55,195Z" transform="translate(0.19 1.35)"/><path class="cls-11" d="M55.36,196.49s1.74-1,1.74-1.06c-.38-1.43-1.23-2.29-1.24-3.74a4.68,4.68,0,0,0-.8-2.57s1.5-3.15,1.91-4.43c.29-.87.58-1.73.89-2.59s.72-1.68,1-2.57a2,2,0,0,0,0-1.19,1.64,1.64,0,0,0-.91-1,1.85,1.85,0,0,0-2.13.27,7.6,7.6,0,0,0-1.9,3.2c-.18.48-.91,2.59-1,2.89-1,3.06-1,4.36-.66,5.59C52.54,190.37,55.28,196.22,55.36,196.49Z" transform="translate(0.19 1.35)"/><path class="cls-11" d="M57.67,177.24a1.94,1.94,0,0,0-2.3.27c-.93.84-2.13,3.47-2.67,6.13a4.22,4.22,0,0,0,1.41,1.59,4.42,4.42,0,0,0,3.08.77c.06-.19.11-.38.16-.57l.09-.37c0-.12.08-.24.11-.36.13-.45.34-1.08.6-1.77a20.39,20.39,0,0,0,.68-2.18A5.73,5.73,0,0,0,59,179.7a3.35,3.35,0,0,0-.07-1A2.25,2.25,0,0,0,57.67,177.24Z" transform="translate(0.19 1.35)"/><path class="cls-11" d="M64.52,240.28c-2.25,1.14-4,1.16-4,0a2.15,2.15,0,0,1,.46-1,1,1,0,0,1,.17-.19h0c.21-.21.43-.41.65-.6h0a2.9,2.9,0,0,1,2.65-1c1.73.45,3.42-2.82,4.09-1.71,0,0,.15.75,0,1A10.37,10.37,0,0,1,64.52,240.28Z" transform="translate(0.19 1.35)"/><path class="cls-11" d="M64.41,240l-.57.27c-2,.87-3.47.8-3.43-.23a2.32,2.32,0,0,1,.46-1l.17-.19h0l.66-.6h0l.09-.08a16.25,16.25,0,0,0,2.13-2.53,7.34,7.34,0,0,0,1.23-2.88L68,233c0,.11.6,2.9.64,3.09h0C68.79,237,66.58,238.93,64.41,240Z" transform="translate(0.19 1.35)"/><path class="cls-11" d="M65.15,237.18l-.06,0-1.66-.84a.14.14,0,0,1-.06-.17.13.13,0,0,1,.17-.05l1.66.84a.13.13,0,0,1,.06.17A.15.15,0,0,1,65.15,237.18Z" transform="translate(0.19 1.35)"/><path class="cls-11" d="M64.63,237.61h0L63,236.8a.12.12,0,0,1,0-.16.12.12,0,0,1,.16-.06l1.57.8a.12.12,0,0,1,0,.16A.11.11,0,0,1,64.63,237.61Z" transform="translate(0.19 1.35)"/><path class="cls-11" d="M64.18,238h-.06l-1.46-.75a.12.12,0,0,1-.06-.16.13.13,0,0,1,.17-.06l1.46.75a.12.12,0,0,1,.06.16A.14.14,0,0,1,64.18,238Z" transform="translate(0.19 1.35)"/><path class="cls-11" d="M61.34,199.37c0,.36-.05.72-.08,1.07l-.1,1c-.19,1.67-.4,3.34-.64,5s-.49,3.43-.69,5.15c0,.35-.08.71-.11,1.07s-.07.71-.1,1.08c-.06.69-.11,1.57-.17,2.22,0-.05,0-.06,0,0,.14.49.16,1,.32,1.47a26.43,26.43,0,0,1,.69,13.75,1.65,1.65,0,0,1-2,1.2,1.59,1.59,0,0,1-1.28-1.41s0,0,0-.05c-.24-3.66-1.15-7.17-1.59-10.8-.07-.62-.1-1.26-.16-1.92,0-.33-.07-.66-.11-1-.1-.78-.14-1.55-.19-2.34,0-.17,0-.34,0-.52-.33-3.48-1-6.89-.81-10.41a23,23,0,0,1,.94-5.51,3.14,3.14,0,0,1,3.88-2A3,3,0,0,1,61.34,199.37Z" transform="translate(0.19 1.35)"/><path class="cls-11" d="M65.76,201.4c.15,2.78-.06,5.6-.17,8.37-.07,1.6-.1,3.2-.11,4.8s-.21,3.34.48,4.92c.24.58.53,1.16.76,1.77a25.51,25.51,0,0,1,1.37,10.85c0,.34-.06.68-.1,1a1.65,1.65,0,0,1-3.24.07v0c-.21-1.19-.43-2.39-.69-3.57-.07-.3-.13-.59-.21-.89-.77-3-1.6-6-2.3-9-.07-.34-.17-.69-.25-1.1l0-.22c-.14-1-.32-2-.55-3.05-.08-.35-.16-.7-.25-1.05s-.17-.71-.26-1.07a34.7,34.7,0,0,1-1-6.63,23.65,23.65,0,0,1,.4-5.57,3.11,3.11,0,0,1,3.67-2.32A3,3,0,0,1,65.76,201.4Z" transform="translate(0.19 1.35)"/><path class="cls-11" d="M60.56,202.64l-4.45-4.48.41-2.57,8.94,3.24Z" transform="translate(0.19 1.35)"/><path class="cls-11" d="M58.07,169.77l-3,1.79-.33.2h0a.26.26,0,0,0-.33,0,.93.93,0,0,0-.16-.18v-.12l.17-.09.11,0,3.28-1.81Z" transform="translate(0.19 1.35)"/><path class="cls-11" d="M66.65,186.18c-.21,1.92-1.6,8.87-.93,11.67.21,1.8-2.48,2.57-4.49,2.68-2.55.15-6.49-1.56-6.24-4.16.14-1.46-.71-7.78-.57-12.39,0-.16,0-.32,0-.48,0-.67.08-1.32.17-1.94a8.13,8.13,0,0,1,1-3.29,5.29,5.29,0,0,1,3.25-1.58,4.63,4.63,0,0,1,2.12.23,12.92,12.92,0,0,1,5.76,4A25,25,0,0,1,66.65,186.18Z" transform="translate(0.19 1.35)"/><path class="cls-11" d="M62,172.76l0,4.84a1.56,1.56,0,0,1-3.11,0,1.62,1.62,0,0,1,0-.22l.65-4.79a1.21,1.21,0,0,1,2.41.15Z" transform="translate(0.19 1.35)"/><path class="cls-11" d="M61.69,173.82c-.31.36-.15,1.15-.84,1.92a6.6,6.6,0,0,1-2.13,1.56,1.43,1.43,0,0,1-1.76-.23,9.84,9.84,0,0,1-1.12-2.55,12.88,12.88,0,0,1-.31-5.54c.9-2.28,2.38-2.78,5-2.46C63.63,166.89,64.23,170.94,61.69,173.82Z" transform="translate(0.19 1.35)"/><path class="cls-11" d="M58.81,174.52a1.58,1.58,0,0,0-.12-.51,1.73,1.73,0,0,0-.25-.41,1.34,1.34,0,0,0-.11-.14,1.68,1.68,0,0,0-.43-.3l-2.46-1.42-.32-.18-.22-.12a.78.78,0,0,0-.32-.1.37.37,0,0,0-.39.24,1.43,1.43,0,0,0,.38,1.32,1.92,1.92,0,0,0,.45.33c.22.13.45.27.67.38a.5.5,0,0,0,.42.06.23.23,0,0,0,.11-.08l.08-.1a.86.86,0,0,0,0-.24l.27.15a1.67,1.67,0,0,0,.41.92,1.88,1.88,0,0,0,.46.33c.22.12.45.27.67.38a.48.48,0,0,0,.41.06.27.27,0,0,0,.12-.07l.07-.11A1.18,1.18,0,0,0,58.81,174.52ZM56,173.46a.25.25,0,0,1-.19,0,1.61,1.61,0,0,1-.46-.22l-.46-.28a1.15,1.15,0,0,1-.52-.77.48.48,0,0,1,.09-.45.26.26,0,0,1,.33,0h0l.11.06.63.38a1.12,1.12,0,0,1,.47.41,1,1,0,0,1,.15.53C56.15,173.3,56.1,173.43,56,173.46Zm2.46,1.42a.31.31,0,0,1-.2,0,2.37,2.37,0,0,1-.46-.22l-.45-.28a1.15,1.15,0,0,1-.52-.77.32.32,0,0,1,0-.13h0v0h0a.15.15,0,0,1,0-.07v0a.27.27,0,0,1,.43-.21l.11.06c.21.13.42.26.63.37a2.31,2.31,0,0,1,.28.19.9.9,0,0,1,.19.23l0,.09a1,1,0,0,1,.09.44C58.6,174.72,58.56,174.85,58.46,174.88Z" transform="translate(0.19 1.35)"/><path class="cls-11" d="M59.55,170.81a24.62,24.62,0,0,1,1.3,2.13c.53.29,1.07.61,1.07.61A3.91,3.91,0,0,0,63.28,171,4.21,4.21,0,0,0,63,168Z" transform="translate(0.19 1.35)"/><path class="cls-11" d="M55.59,170.67c3,1.29,6.22.73,7.47-2.19,0-2.51-4-3.51-6.41-1.76C54.79,168.1,54.58,170.23,55.59,170.67Z" transform="translate(0.19 1.35)"/><path class="cls-11" d="M61.83,171.74l-3.39,1.86-.17.09v.11a.9.9,0,0,1,.19.23l0,.09.18-.11L62,172Z" transform="translate(0.19 1.35)"/><path class="cls-11" d="M61.51,172.2c.59-1.46,1.52-.66,1.55-.07A2.08,2.08,0,0,1,61.6,174c-.1,0-.24-.68-.22-.93A2.28,2.28,0,0,1,61.51,172.2Z" transform="translate(0.19 1.35)"/><path class="cls-11" d="M72.79,191.07c-.53-1.07-2.29-5.25-2.66-5.93a8,8,0,0,0-1.23-1.85,7.42,7.42,0,0,0-2.69-1.84,1.89,1.89,0,0,0-2.16.23c-1.33,1.1.52,3.6,1.41,4.8.56.73,1.21,1.6,2,2.5.39.44,2.59,3.17,2.57,3.18a10.08,10.08,0,0,0-2.2,2.35c-.49.69-.8,1.47-1.26,2.16a6.36,6.36,0,0,1-.8,1,4.6,4.6,0,0,1-.76.61,2.19,2.19,0,0,1-.57.24l-.15,0h-.06a1.46,1.46,0,0,0-1.34.82,1.64,1.64,0,0,0,.76,2.13,1.53,1.53,0,0,0,2.1-.63l.11-.23a.22.22,0,0,0,0-.07l.12-.19c.09-.15.24-.36.41-.61a8.6,8.6,0,0,1,.69-.8,11.57,11.57,0,0,1,1-.89,31.3,31.3,0,0,0,3.61-3.25,10.85,10.85,0,0,0,1.51-2.28A3.67,3.67,0,0,0,72.79,191.07Z" transform="translate(0.19 1.35)"/><path class="cls-11" d="M66.15,199.6c-.09-.95-.63-1.26-1.28-1.18a2.52,2.52,0,0,0-2.2.61,4.89,4.89,0,0,1-1.62.73c.11.68,1.09.47,1.66.34-1.21,1-3.48,2.36-.76,2.65a3.86,3.86,0,0,0,1.27-.09,4.77,4.77,0,0,0,1.22-.54,3.13,3.13,0,0,0,1.64-1.92A2,2,0,0,0,66.15,199.6Z" transform="translate(0.19 1.35)"/><path class="cls-11" d="M70.31,184.92a3.27,3.27,0,0,1-3.85,3.24c-1.46-1.9-4.71-5.59-2.36-7.38a2.23,2.23,0,0,1,2.41-.22,5.92,5.92,0,0,1,1.72,1.33,11.55,11.55,0,0,1,.86,1C69.41,183.31,70,184.48,70.31,184.92Z" transform="translate(0.19 1.35)"/><path class="cls-11" d="M55.83,233.37c.36-.85.27-2.08,1-2.76a.94.94,0,0,1,1.67.44,3.57,3.57,0,0,1-.11,2.17,4.39,4.39,0,0,1-.28.89c-.34.52-1.33.7-1.88.88Z" transform="translate(0.19 1.35)"/><path class="cls-11" d="M66.42,236.18c.06-.2.09-.41.15-.59a3.5,3.5,0,0,0,.11-2.17A.94.94,0,0,0,65,233c-.63.63-.61,1.7-.87,2.54Z" transform="translate(0.19 1.35)"/><path class="cls-11" d="M57.53,233.38h-.05l-1.72-.87a.13.13,0,0,1-.06-.17.14.14,0,0,1,.17-.05l1.72.87a.12.12,0,0,1,0,.16A.11.11,0,0,1,57.53,233.38Z" transform="translate(0.19 1.35)"/><path class="cls-11" d="M57,233.82H57l-1.71-.87a.12.12,0,0,1-.06-.17.13.13,0,0,1,.17-.05l1.71.86a.13.13,0,0,1,0,.24Z" transform="translate(0.19 1.35)"/><path class="cls-11" d="M56.56,234.23l-.06,0-1.71-.86a.14.14,0,0,1-.06-.17.13.13,0,0,1,.17-.05l1.71.87a.11.11,0,0,1,.06.16A.14.14,0,0,1,56.56,234.23Z" transform="translate(0.19 1.35)"/><path class="cls-11" d="M63.84,240.3c-2,.87-3.47.8-3.43-.23a2.32,2.32,0,0,1,.46-1l.17-.19h0l.66-.6h0l.09-.08A2.43,2.43,0,0,1,63.84,240.3Z" transform="translate(0.19 1.35)"/><path class="cls-11" d="M61.76,200.71a7.62,7.62,0,0,0,3.91,1.47c-.54,1.68-1.79,4.48-1.79,4.48l-3.43-2v-3.47Z" transform="translate(0.19 1.35)"/><text class="cls-9" transform="translate(150.35 214.66)">INFECTS</text><path class="cls-12" d="M561.81,165.61a19.61,19.61,0,0,1-7.25-2.27,15.65,15.65,0,0,1-4.16-4,31.29,31.29,0,0,1-3.94-6.88l.27-.11a31,31,0,0,0,3.9,6.82,15.42,15.42,0,0,0,4.09,4,19.54,19.54,0,0,0,7.13,2.23Z" transform="translate(0.19 1.35)"/><path class="cls-12" d="M558.84,182c-.44,0-1.18.16-1.32.56s.37.94.37.94c.18.21.24.28.61.12s.75-.35.82-.67S559.27,182,558.84,182Z" transform="translate(0.19 1.35)"/><path class="cls-12" d="M558.64,182.61a.7.7,0,1,1-1.26.52.77.77,0,0,1,.31-1A.78.78,0,0,1,558.64,182.61Z" transform="translate(0.19 1.35)"/><path class="cls-12" d="M558.16,182.83a.21.21,0,0,1-.08.3.22.22,0,0,1-.28-.15.23.23,0,0,1,.09-.3A.22.22,0,0,1,558.16,182.83Z" transform="translate(0.19 1.35)"/><path class="cls-12" d="M557.32,182.24s1.34.69,1.45.72.31-.07.68-.32c0,0,.09-.95-.75-1.12A1.12,1.12,0,0,0,557.32,182.24Z" transform="translate(0.19 1.35)"/><path class="cls-12" d="M558.78,183a1,1,0,0,0-.38-1,.77.77,0,0,0-1,.14.76.76,0,0,0,0,.11s1.34.69,1.45.72Z" transform="translate(0.19 1.35)"/><path class="cls-13" d="M558.7,181.52a1.15,1.15,0,0,0-1.2.38.86.86,0,0,1,.85,0,1.08,1.08,0,0,1,.5,1.08,2,2,0,0,0,.6-.31S559.54,181.69,558.7,181.52Z" transform="translate(0.19 1.35)"/><path class="cls-12" d="M558.11,181v.7s.23.24.63-.06l0-.75Z" transform="translate(0.19 1.35)"/><path class="cls-14" d="M558.71,180.92l-.6.11v.36c0-.08,0-.1.1-.09.23.06.3,0,.3.1s0,.28,0,.33-.08.07-.15.09a.64.64,0,0,0,.39-.15Z" transform="translate(0.19 1.35)"/><path class="cls-13" d="M558.74,181.37l0-.45-.6.11v.33A.73.73,0,0,0,558.74,181.37Z" transform="translate(0.19 1.35)"/><path class="cls-12" d="M557.81,179.62l.1,1.47a.7.7,0,0,0,1-.08l0-1.43Z" transform="translate(0.19 1.35)"/><path class="cls-15" d="M558.37,179.59l-.4,0c0,.52.07,1,.09,1.57a.68.68,0,0,0,.37.08C558.42,180.7,558.41,180.15,558.37,179.59Z" transform="translate(0.19 1.35)"/><path class="cls-13" d="M558.88,180.33v-.75l-1.06,0,.05.67A1.28,1.28,0,0,0,558.88,180.33Z" transform="translate(0.19 1.35)"/><path class="cls-12" d="M551.08,182.67c-.43,0-1.17.16-1.32.56s.37.94.37.94c.19.21.25.28.62.11s.75-.35.82-.67S551.52,182.71,551.08,182.67Z" transform="translate(0.19 1.35)"/><path class="cls-12" d="M550.89,183.31a.7.7,0,1,1-1-.52A.78.78,0,0,1,550.89,183.31Z" transform="translate(0.19 1.35)"/><path class="cls-12" d="M550.41,183.53a.22.22,0,0,1-.08.3.25.25,0,0,1-.19-.45A.22.22,0,0,1,550.41,183.53Z" transform="translate(0.19 1.35)"/><path class="cls-12" d="M549.56,182.94s1.35.69,1.45.71.31-.06.69-.31c0,0,.09-1-.75-1.12A1.13,1.13,0,0,0,549.56,182.94Z" transform="translate(0.19 1.35)"/><path class="cls-12" d="M551,183.65a1,1,0,0,0-.39-1,.76.76,0,0,0-1,.14l-.05.11s1.35.69,1.45.71Z" transform="translate(0.19 1.35)"/><path class="cls-13" d="M551,182.22a1.16,1.16,0,0,0-1.21.38.81.81,0,0,1,.85,0,1.06,1.06,0,0,1,.51,1.08,2,2,0,0,0,.6-.31S551.79,182.38,551,182.22Z" transform="translate(0.19 1.35)"/><path class="cls-12" d="M550.35,181.72l0,.7s.23.25.63,0l0-.75Z" transform="translate(0.19 1.35)"/><path class="cls-14" d="M551,181.62l-.61.1v.37c0-.08,0-.1.1-.09.23.05.29,0,.3.09s0,.28,0,.34-.07.06-.14.09a.64.64,0,0,0,.39-.15Z" transform="translate(0.19 1.35)"/><path class="cls-13" d="M551,182.07l0-.45-.61.1v.34A.73.73,0,0,0,551,182.07Z" transform="translate(0.19 1.35)"/><path class="cls-12" d="M550.06,180.31l.1,1.48a.69.69,0,0,0,1-.08l0-1.44Z" transform="translate(0.19 1.35)"/><path class="cls-15" d="M550.61,180.29l-.4,0c0,.52.07,1.05.09,1.57a.62.62,0,0,0,.37.07C550.67,181.4,550.65,180.85,550.61,180.29Z" transform="translate(0.19 1.35)"/><path class="cls-13" d="M551.13,181v-.76l-1.06,0,0,.68A1.31,1.31,0,0,0,551.13,181Z" transform="translate(0.19 1.35)"/><path class="cls-12" d="M553.56,183.9c-.43,0-1.17.16-1.32.56s.37.94.37.94c.19.21.24.28.61.12s.76-.35.83-.67S554,183.94,553.56,183.9Z" transform="translate(0.19 1.35)"/><path class="cls-12" d="M553.36,184.54a.69.69,0,1,1-1.25.52.69.69,0,1,1,1.25-.52Z" transform="translate(0.19 1.35)"/><path class="cls-12" d="M552.89,184.76a.22.22,0,0,1-.09.3.25.25,0,0,1-.19-.45A.23.23,0,0,1,552.89,184.76Z" transform="translate(0.19 1.35)"/><path class="cls-12" d="M552,184.17s1.35.69,1.45.71.31-.06.69-.31c0,0,.09-.95-.75-1.12A1.13,1.13,0,0,0,552,184.17Z" transform="translate(0.19 1.35)"/><path class="cls-12" d="M553.5,184.89a1,1,0,0,0-.38-1,.77.77,0,0,0-1,.14s0,.08,0,.11,1.35.69,1.45.71Z" transform="translate(0.19 1.35)"/><path class="cls-13" d="M553.43,183.45a1.17,1.17,0,0,0-1.21.38.83.83,0,0,1,.85,0,1.07,1.07,0,0,1,.51,1.08,2,2,0,0,0,.6-.31S554.27,183.62,553.43,183.45Z" transform="translate(0.19 1.35)"/><path class="cls-12" d="M552.83,183v.69s.24.25.64-.05l0-.75Z" transform="translate(0.19 1.35)"/><path class="cls-14" d="M553.44,182.85l-.61.11v.36c0-.08,0-.1.1-.09s.29,0,.29.09a1.93,1.93,0,0,1,0,.34c0,.08-.07.07-.15.09a.64.64,0,0,0,.4-.15Z" transform="translate(0.19 1.35)"/><path class="cls-13" d="M553.46,183.3l0-.45-.61.11v.33A.71.71,0,0,0,553.46,183.3Z" transform="translate(0.19 1.35)"/><path class="cls-12" d="M552.53,181.54l.11,1.48a.69.69,0,0,0,1-.08l0-1.43Z" transform="translate(0.19 1.35)"/><path class="cls-15" d="M553.09,181.52l-.4,0c0,.52.07,1.05.09,1.57a.68.68,0,0,0,.37.08C553.15,182.63,553.13,182.08,553.09,181.52Z" transform="translate(0.19 1.35)"/><path class="cls-13" d="M553.61,182.26v-.75l-1.07,0,.05.68A1.31,1.31,0,0,0,553.61,182.26Z" transform="translate(0.19 1.35)"/><path class="cls-12" d="M556.36,180.74c-.44,0-1.18.16-1.32.56s.37.94.37.94c.18.21.24.28.61.11s.76-.34.83-.67S556.8,180.78,556.36,180.74Z" transform="translate(0.19 1.35)"/><path class="cls-12" d="M556.16,181.38a.69.69,0,1,1-.95-.52A.77.77,0,0,1,556.16,181.38Z" transform="translate(0.19 1.35)"/><path class="cls-12" d="M555.69,181.6a.22.22,0,0,1-.09.3.23.23,0,0,1-.28-.15.23.23,0,0,1,.09-.3A.23.23,0,0,1,555.69,181.6Z" transform="translate(0.19 1.35)"/><path class="cls-12" d="M554.84,181s1.34.69,1.45.71.31-.06.68-.31c0,0,.1-.95-.75-1.12A1.12,1.12,0,0,0,554.84,181Z" transform="translate(0.19 1.35)"/><path class="cls-12" d="M556.3,181.73a1,1,0,0,0-.38-1,.77.77,0,0,0-1,.14.76.76,0,0,0,0,.11s1.34.69,1.45.71Z" transform="translate(0.19 1.35)"/><path class="cls-13" d="M556.22,180.29a1.16,1.16,0,0,0-1.2.38.81.81,0,0,1,.85,0,1.1,1.1,0,0,1,.51,1.08,2,2,0,0,0,.59-.31S557.07,180.46,556.22,180.29Z" transform="translate(0.19 1.35)"/><path class="cls-12" d="M555.63,179.79v.7s.23.25.64-.05l0-.75Z" transform="translate(0.19 1.35)"/><path class="cls-14" d="M556.24,179.69l-.61.1v.37c0-.08,0-.1.1-.09.23.05.3,0,.3.09s0,.29,0,.34-.08.07-.15.09a.66.66,0,0,0,.4-.15Z" transform="translate(0.19 1.35)"/><path class="cls-13" d="M556.26,180.14l0-.45-.61.1v.34A.73.73,0,0,0,556.26,180.14Z" transform="translate(0.19 1.35)"/><path class="cls-12" d="M555.33,178.38l.1,1.48a.7.7,0,0,0,1-.08l0-1.44Z" transform="translate(0.19 1.35)"/><path class="cls-15" d="M555.89,178.36l-.4,0c0,.52.07,1.05.09,1.57a.68.68,0,0,0,.37.08C555.94,179.47,555.93,178.92,555.89,178.36Z" transform="translate(0.19 1.35)"/><path class="cls-13" d="M556.41,179.1l0-.76-1.06,0,0,.68A1.3,1.3,0,0,0,556.41,179.1Z" transform="translate(0.19 1.35)"/><path class="cls-12" d="M559,180.13v-1.5h-2.48l-.5-.24a1.37,1.37,0,0,0-1.13-.07l-.93.31h-3.84l0,1.52c0,.14,0,.3.3.49l2.43,1.31a1.26,1.26,0,0,0,1,.19l4.5-1.46S559.11,180.52,559,180.13Z" transform="translate(0.19 1.35)"/><path class="cls-16" d="M554.09,178.57l-.18.06h-1.13v3.31h0a1.26,1.26,0,0,0,1,.19l.26-.08Z" transform="translate(0.19 1.35)"/><path class="cls-12" d="M554.82,176.69l-4.25,1.42s-1,.35-.2.9l2.43,1.32a1.28,1.28,0,0,0,1,.18l4.5-1.46s.9-.19.56-.64a16.52,16.52,0,0,0-2.92-1.65A1.42,1.42,0,0,0,554.82,176.69Z" transform="translate(0.19 1.35)"/><path class="cls-13" d="M558.87,178.41a16.52,16.52,0,0,0-2.92-1.65,1.42,1.42,0,0,0-1.13-.07l-4.25,1.42-.11,0a16,16,0,0,0,1.68-.45,2.5,2.5,0,0,1,1.57-.13,0,0,0,0,1,0,.07c-.19.19-.51.45-.5.75s.41.48.7.51a5.2,5.2,0,0,0,1.62-.17,3.9,3.9,0,0,1,3,.26C558.73,178.92,559.11,178.73,558.87,178.41Z" transform="translate(0.19 1.35)"/><path class="cls-12" d="M553.74,168v10.26a.94.94,0,0,0,1.24.07V168Z" transform="translate(0.19 1.35)"/><path class="cls-13" d="M553.74,168v10.26a.61.61,0,0,0,.37.24V168Z" transform="translate(0.19 1.35)"/><path class="cls-13" d="M554.58,168v10.5a1,1,0,0,0,.4-.17V168Z" transform="translate(0.19 1.35)"/><path class="cls-12" d="M552,164.25h5a.9.9,0,0,1,.9.9v3.7a.89.89,0,0,1-.89.89h-5a.89.89,0,0,1-.89-.89v-3.7A.9.9,0,0,1,552,164.25Z"/><path class="cls-16" d="M557.65,165V163.8a.89.89,0,0,0-.9-.89h-5a.89.89,0,0,0-.9.89V165Z" transform="translate(0.19 1.35)"/><rect class="cls-12" x="551.08" y="144.14" width="4.68" height="0.42" transform="translate(91.5 482.68) rotate(-50.72)"/><path class="cls-16" d="M554.4,142.88a1,1,0,0,0,.2.36l.47-.57-.33-.26-.35.43Z" transform="translate(0.19 1.35)"/><path class="cls-16" d="M553.14,144.36,551.78,146l.32.26,1.58-1.93Z" transform="translate(0.19 1.35)"/><rect class="cls-12" x="555.36" y="142.65" width="0.61" height="16.72" transform="translate(-4.66 20.51) rotate(-1.97)"/><polygon class="cls-16" points="556.45 160.7 556.11 160.69 555.6 143.82 555.88 143.99 556.45 160.7"/><path class="cls-17" d="M555.7,143.3l0-.66-.61,0,0,.68A1.23,1.23,0,0,0,555.7,143.3Z" transform="translate(0.19 1.35)"/><path class="cls-12" d="M556,142.48a.9.9,0,0,0-.26-.68.41.41,0,0,0-.3-.11c-.33,0-.68,0-.86.34s-.07,1.09.4,1.09a1.59,1.59,0,0,0,.72-.08A.56.56,0,0,0,556,142.48Z" transform="translate(0.19 1.35)"/><path class="cls-18" d="M556,142.48a.9.9,0,0,0-.26-.68.37.37,0,0,0-.22-.1.57.57,0,0,0-.62.37c-.08.18-.07.36-.14.54a.08.08,0,0,1-.13,0,.56.56,0,0,1-.05-.62h0c-.21.33-.07,1.09.4,1.09a1.59,1.59,0,0,0,.72-.08A.56.56,0,0,0,556,142.48Z" transform="translate(0.19 1.35)"/><path class="cls-12" d="M556,142.48c0-.25-.07-.62-.34-.72a.62.62,0,0,0-.33,0,.72.72,0,0,0-.46.67.93.93,0,0,0,.14.49.51.51,0,0,0,.69.13A.56.56,0,0,0,556,142.48Z" transform="translate(0.19 1.35)"/><path class="cls-12" d="M555.67,142.66a.17.17,0,0,1-.29.05.47.47,0,0,1,0-.37.23.23,0,0,1,.11-.15c.1-.05.18,0,.21.13A.45.45,0,0,1,555.67,142.66Z" transform="translate(0.19 1.35)"/><path class="cls-12" d="M555.67,142.32c0-.09-.11-.18-.21-.13l0,0a.12.12,0,0,1,.1,0,.37.37,0,0,1,.06.38.13.13,0,0,1-.22.05l0,0a.17.17,0,0,0,.29-.05A.45.45,0,0,0,555.67,142.32Z" transform="translate(0.19 1.35)"/><path class="cls-12" d="M554.51,144.57a.42.42,0,0,1,.46.41c0,.45-.21,7.26-.21,7.26s.07.72-.35.73l-9-.18s-.78.06-.84-.58c0-.42,0-7.46,0-7.46s0-.33.56-.4Z" transform="translate(0.19 1.35)"/><path class="cls-12" d="M554.85,149.19c-.05,1.61-.09,3.05-.09,3.05s.07.72-.35.73l-9-.18s-.78.06-.84-.58c0-.17,0-1.52,0-3Z" transform="translate(0.19 1.35)"/><path class="cls-12" d="M554,145.18l.9-.49a.39.39,0,0,1,.12.29c0,.45-.21,7.26-.21,7.26s0,.48-.16.66l-.93-.63Z" transform="translate(0.19 1.35)"/><path class="cls-12" d="M544.49,144.75a.4.4,0,0,1,.23-.3l.16.46.11,7.33-.32.32a.57.57,0,0,1-.15-.35C544.48,151.79,544.49,144.75,544.49,144.75Z" transform="translate(0.19 1.35)"/><path class="cls-12" d="M553.85,145.25a.37.37,0,0,1,.41.37c0,.4-.19,6.51-.19,6.51s.07.64-.31.64l-8.11-.15s-.7,0-.75-.52c0-.38,0-6.69,0-6.69s0-.3.5-.36Z" transform="translate(0.19 1.35)"/><path class="cls-13" d="M544.93,149.86a5.64,5.64,0,0,0,1.16.69,7.52,7.52,0,0,0,2.92.68,12.41,12.41,0,0,0,2.28-.13,7.22,7.22,0,0,0,2.84-.94c0,1.1-.06,2-.06,2s.07.64-.31.64l-8.11-.15s-.7,0-.75-.52c0-.14,0-1.12,0-2.28Z" transform="translate(0.19 1.35)"/><path class="cls-19" d="M554.55,144.7a.4.4,0,0,1,.32.34,1.56,1.56,0,0,1,0,.27c0,.44-.2,7-.2,7s0,.45-.14.45a1.57,1.57,0,0,0,.07-.6c0-.45.14-6.71.14-6.71a1.6,1.6,0,0,0-.06-.37.22.22,0,0,0-.05-.08h0s0,0,0,0a.56.56,0,0,0-.35-.11l-9.26-.37S554.21,144.62,554.55,144.7Z" transform="translate(0.19 1.35)"/><path class="cls-12" d="M545,151.58v-5.75c0-.62.43-.54.43-.54l8,.19s.7-.16.59.6l-.11,5.69s0,.8-.51.76l-7.95-.14S545,152.33,545,151.58Z" transform="translate(0.19 1.35)"/><path class="cls-12" d="M545,151.58v-5.75c0-.62.43-.54.43-.54l8,.19s.7-.16.59.6l-.11,5.69s0,.8-.51.76l-7.95-.14S545,152.33,545,151.58Z" transform="translate(0.19 1.35)"/><path class="cls-12" d="M545.23,151.23V145.8c0-.58.41-.51.41-.51l7.56.18s.66-.15.56.57l-.1,5.38s0,.75-.48.72l-7.52-.14S545.23,151.94,545.23,151.23Z" transform="translate(0.19 1.35)"/><path class="cls-20" d="M553.67,147.5a4.25,4.25,0,0,0-.31-.6,1.1,1.1,0,0,0-.39-.35,3.27,3.27,0,0,0-1.06-.33,9.87,9.87,0,0,0-1.21-.1c-.4,0-.8,0-1.2,0s-1.07-.06-1.6-.05a5.9,5.9,0,0,0-1.52.15,1.39,1.39,0,0,0-.79.52,2.69,2.69,0,0,0-.43,1c0-1.06,0-1.92,0-1.92s0-.26.45-.31l7.79.17a.33.33,0,0,1,.37.33c0,.12,0,.82,0,1.69A1,1,0,0,0,553.67,147.5Z" transform="translate(0.19 1.35)"/><rect class="cls-12" x="550.02" y="159.54" width="8.03" height="6.5" rx="1.06"/><path class="cls-16" d="M550.33,158.36a1.07,1.07,0,0,0-.51.9v4.38a1.06,1.06,0,0,0,.51.9Z" transform="translate(0.19 1.35)"/><rect class="cls-12" x="551.98" y="159.54" width="1.22" height="6.5"/><path class="cls-12" d="M556.79,158.2h-.54v6.5h.54a1.05,1.05,0,0,0,1.06-1.06v-4.38A1.05,1.05,0,0,0,556.79,158.2Z" transform="translate(0.19 1.35)"/><path class="cls-12" d="M558.2,158.8c0,.33-.47.61-1.06.61h-6.72c-.58,0-1.06-.28-1.06-.61v-.21c0-.34.48-.61,1.06-.61h6.72c.59,0,1.06.27,1.06.61Z" transform="translate(0.19 1.35)"/><path class="cls-12" d="M558.2,158.47c0,.34-.47.61-1.06.61h-6.72c-.58,0-1.06-.27-1.06-.61v-.21c0-.34.48-.61,1.06-.61h6.72c.59,0,1.06.27,1.06.61Z" transform="translate(0.19 1.35)"/><path class="cls-12" d="M557.85,158.48c0,.27-.44.5-1,.5h-6.29c-.55,0-1-.23-1-.5v-.17c0-.27.45-.49,1-.49h6.29c.55,0,1,.22,1,.49Z" transform="translate(0.19 1.35)"/><path class="cls-12" d="M557.85,158.44c0,.26-.44.47-1,.47h-6.29c-.55,0-1-.21-1-.47v-.16c0-.25.45-.46,1-.46h6.29c.55,0,1,.21,1,.46Z" transform="translate(0.19 1.35)"/><path class="cls-12" d="M551,158.1a.55.55,0,0,0-.36,0h-.11v.1c0,.07.13.12.29.12s.29,0,.29-.12v-.1Z" transform="translate(0.19 1.35)"/><path class="cls-12" d="M551.12,158.1c0,.07-.13.13-.29.13s-.29-.06-.29-.13.13-.12.29-.12S551.12,158,551.12,158.1Z" transform="translate(0.19 1.35)"/><path class="cls-12" d="M551,158.52a.55.55,0,0,0-.36,0h-.11v.1c0,.07.13.12.29.12s.29-.05.29-.12v-.1Z" transform="translate(0.19 1.35)"/><path class="cls-12" d="M551.12,158.52c0,.07-.13.13-.29.13s-.29-.06-.29-.13.13-.12.29-.12S551.12,158.45,551.12,158.52Z" transform="translate(0.19 1.35)"/><path class="cls-12" d="M551.7,158.1a.56.56,0,0,0-.36,0h-.11v.1c0,.07.13.12.29.12s.29,0,.29-.12v-.1Z" transform="translate(0.19 1.35)"/><path class="cls-12" d="M551.81,158.1c0,.07-.13.13-.29.13s-.29-.06-.29-.13.13-.12.29-.12S551.81,158,551.81,158.1Z" transform="translate(0.19 1.35)"/><path class="cls-12" d="M551.7,158.52a.56.56,0,0,0-.36,0h-.11v.1c0,.07.13.12.29.12s.29-.05.29-.12v-.1Z" transform="translate(0.19 1.35)"/><path class="cls-12" d="M551.81,158.52c0,.07-.13.13-.29.13s-.29-.06-.29-.13.13-.12.29-.12S551.81,158.45,551.81,158.52Z" transform="translate(0.19 1.35)"/><path class="cls-12" d="M552.42,158.1a.54.54,0,0,0-.19,0,.52.52,0,0,0-.18,0h-.11v.1c0,.07.13.12.29.12s.3,0,.3-.12v-.1Z" transform="translate(0.19 1.35)"/><path class="cls-12" d="M552.53,158.1c0,.07-.13.13-.3.13s-.29-.06-.29-.13.13-.12.29-.12S552.53,158,552.53,158.1Z" transform="translate(0.19 1.35)"/><path class="cls-12" d="M552.42,158.52a.54.54,0,0,0-.19,0,.52.52,0,0,0-.18,0h-.11v.1c0,.07.13.12.29.12s.3-.05.3-.12v-.1Z" transform="translate(0.19 1.35)"/><path class="cls-12" d="M552.53,158.52c0,.07-.13.13-.3.13s-.29-.06-.29-.13.13-.12.29-.12S552.53,158.45,552.53,158.52Z" transform="translate(0.19 1.35)"/><path class="cls-12" d="M552.75,158.52v.11c0,.06.1.11.21.11h4c.11,0,.21-.05.21-.11v-.11Z" transform="translate(0.19 1.35)"/><path class="cls-12" d="M557.18,158.52c0,.06-.1.11-.21.11h-4c-.11,0-.21,0-.21-.11h0c0-.07.1-.11.21-.11h4c.11,0,.21,0,.21.11Z" transform="translate(0.19 1.35)"/><path class="cls-12" d="M552.75,158.09v.11c0,.06.1.11.21.11h4c.11,0,.21-.05.21-.11v-.11Z" transform="translate(0.19 1.35)"/><path class="cls-12" d="M557.18,158.09c0,.06-.1.11-.21.11h-4c-.11,0-.21,0-.21-.11h0c0-.06.1-.11.21-.11h4c.11,0,.21.05.21.11Z" transform="translate(0.19 1.35)"/><path class="cls-12" d="M550.86,150.42h0a.08.08,0,0,1-.08-.07l-.13-1.9-.38.79a.09.09,0,0,1-.08,0l-1.86-.06-.16.82a.09.09,0,0,1-.08.06A.07.07,0,0,1,548,150l-.18-1.11-.25,1.36a.1.1,0,0,1-.09.06.08.08,0,0,1-.07-.07l-.12-1.7-.39,1.79a.09.09,0,0,1-.08.06.08.08,0,0,1-.07-.07l-.21-1.29-.19.55a.08.08,0,0,1-.07,0,.09.09,0,0,1-.08-.06l-.29-1.29-.33,1.23a.09.09,0,0,1-.1.06.07.07,0,0,1,0-.1l.41-1.54s0-.05.07-.06a.09.09,0,0,1,.08.06l.31,1.34.2-.58a.08.08,0,0,1,.08-.06.08.08,0,0,1,.07.07l.19,1.19.42-1.92s0-.06.08-.06a.08.08,0,0,1,.07.08l.11,1.63.23-1.2a.07.07,0,0,1,.08-.06s.07,0,.07.06l.18,1.12.09-.45s0-.06.07-.06l1.89.06.48-1a.11.11,0,0,1,.09-.05.09.09,0,0,1,.06.08l.11,1.48.1-.71a.08.08,0,0,1,.08-.07s.08,0,.08.08v.3l.05-.2a.07.07,0,0,1,.07-.06.08.08,0,0,1,.08.06l.07.22,0-.13s0-.06.07-.06h1.82a.08.08,0,0,1,0,.16h-1.75l-.08.36a.1.1,0,0,1-.08.07.09.09,0,0,1-.07-.06l-.08-.25-.12.49a.08.08,0,0,1-.09.06.08.08,0,0,1-.06,0l-.07.51A.08.08,0,0,1,550.86,150.42Z" transform="translate(0.19 1.35)"/><path class="cls-12" d="M553.35,151.46h0l-2.26-.1a.07.07,0,0,1-.07-.08.08.08,0,0,1,.08-.08l2.26.11a.08.08,0,0,1,.07.08A.07.07,0,0,1,553.35,151.46Z" transform="translate(0.19 1.35)"/><path class="cls-12" d="M553.35,151.46h0l-2.26-.1a.07.07,0,0,1-.07-.08.08.08,0,0,1,.08-.08l2.26.11a.08.08,0,0,1,.07.08A.07.07,0,0,1,553.35,151.46Z" transform="translate(0.19 1.35)"/><path class="cls-12" d="M553.35,151.85h0l-2.26-.1a.07.07,0,0,1-.07-.08.07.07,0,0,1,.08-.08l2.26.11a.08.08,0,0,1,.07.08A.07.07,0,0,1,553.35,151.85Z" transform="translate(0.19 1.35)"/><polygon class="cls-17" points="556.4 159.04 556.39 158.73 555.77 158.73 555.78 159.04 556.4 159.04"/><path class="cls-12" d="M550.3,158.1a.48.48,0,0,0-.18,0,.58.58,0,0,0-.19,0h-.11v.1c0,.07.14.12.3.12s.29,0,.29-.12v-.1Z" transform="translate(0.19 1.35)"/><path class="cls-12" d="M550.41,158.1c0,.07-.13.13-.29.13s-.3-.06-.3-.13.14-.12.3-.12S550.41,158,550.41,158.1Z" transform="translate(0.19 1.35)"/><path class="cls-12" d="M550.3,158.52a.48.48,0,0,0-.18,0,.58.58,0,0,0-.19,0h-.11v.1c0,.07.14.12.3.12s.29-.05.29-.12v-.1Z" transform="translate(0.19 1.35)"/><path class="cls-12" d="M550.41,158.52c0,.07-.13.13-.29.13s-.3-.06-.3-.13.14-.12.3-.12S550.41,158.45,550.41,158.52Z" transform="translate(0.19 1.35)"/><rect class="cls-12" x="506.95" y="186.56" width="65.31" height="3.58"/><rect class="cls-12" x="506.95" y="179.38" width="65.31" height="7.17"/><rect class="cls-12" x="504.08" y="167.61" width="2.86" height="29"/><rect class="cls-12" x="572.12" y="167.62" width="2.86" height="29"/><path class="cls-12" d="M506.81,164.81a1.46,1.46,0,1,1-1.46-1.46A1.46,1.46,0,0,1,506.81,164.81Z" transform="translate(0.19 1.35)"/><path class="cls-12" d="M574.82,164.81a1.47,1.47,0,1,1-1.46-1.46A1.47,1.47,0,0,1,574.82,164.81Z" transform="translate(0.19 1.35)"/><path class="cls-21" d="M558.7,188.79H547.77a53.09,53.09,0,0,0-8-3.58,22.23,22.23,0,0,0-3.61-.83c-3.6-.48-7.28-.21-10.87-.81-1-.18-2-.43-3.08-.6a22.07,22.07,0,0,0-9.22.41,23.78,23.78,0,0,1-3.8.88,1.08,1.08,0,0,1-.69-.11,1.13,1.13,0,0,1-.38-.71,22.33,22.33,0,0,1-.57-5.4H519a93.48,93.48,0,0,0,10.52,1.27,28,28,0,0,1,4.76.27,29.21,29.21,0,0,1,4.49,1.5c5.53,2,11.56,2.14,17.23,3.7a5.56,5.56,0,0,1,1.18.43,1.94,1.94,0,0,1,.44.31,3.86,3.86,0,0,1,1,2.17A7.53,7.53,0,0,1,558.7,188.79Z" transform="translate(0.19 1.35)"/><path class="cls-12" d="M571.92,176.34c0,.29,0,.54-.06.7a1.09,1.09,0,0,1-.08.47,1,1,0,0,1-.64.51l0,0h0a3.35,3.35,0,0,1-1.57.13,4.74,4.74,0,0,1-1.51-.09l-.11-.05a.52.52,0,0,1-.32-.42.72.72,0,0,1,0-.32A12,12,0,0,1,568,176l.21-.46a1.75,1.75,0,0,1,1.12-.9,2.87,2.87,0,0,1,.41,0,4.81,4.81,0,0,0,.82-.13,2.76,2.76,0,0,1,.73-.07.58.58,0,0,1,.55.34.53.53,0,0,1,0,.15A5.66,5.66,0,0,1,571.92,176.34Z" transform="translate(0.19 1.35)"/><path class="cls-12" d="M563,172.19l-7.69,1.32-.57-2.64,7.34-1.7a1.55,1.55,0,0,1,2,1.05S564.46,171.9,563,172.19Z" transform="translate(0.19 1.35)"/><path class="cls-12" d="M562.17,169.06l-3.41.88.58,2.88,3.76-.53C565.1,171.89,565.06,168.48,562.17,169.06Z" transform="translate(0.19 1.35)"/><path class="cls-12" d="M555.11,173.54a11.69,11.69,0,0,1-6.31-1.31l-.25-1.47,6.47,0h.05a1.35,1.35,0,0,1,1.36,1.31v0a.24.24,0,0,1,0,.12,1.34,1.34,0,0,1-1,1.23Z" transform="translate(0.19 1.35)"/><path class="cls-12" d="M548.55,170.76l-2.24-.2a1.54,1.54,0,0,0-1.14.36l-1.28,1.1a.23.23,0,0,0-.07.25h0a.23.23,0,0,0,.33.13l1.65-.93,1.93.75h1.07Z" transform="translate(0.19 1.35)"/><path class="cls-12" d="M564.74,167.21l0,.08,0,.09-.2.47-.23.55-.18.43-.08.2-.29.68-.07.17c-.25.26-.73.21-1.24,0a9.78,9.78,0,0,1-2-1l.32-.62.26-.49.2-.36.07-.14.16-.3.76-1.46a19.15,19.15,0,0,0,1.65,1.12l.58.36h0Z" transform="translate(0.19 1.35)"/><path class="cls-12" d="M563.58,171.43h0v.08a6.32,6.32,0,0,1-2.23,3.55l-.19.15-.29.22,0,0c-.23.17-.47.32-.73.48h0a11.5,11.5,0,0,1-1.9.88l-.37.14-.86.34a14.91,14.91,0,0,1-2.37.74,18.45,18.45,0,0,1-3,.41l-.59,0h-.83c-.07-.52-.13-.87-.18-1.12-.27-1.2-.44-.25-.23-4.62a3.62,3.62,0,0,1,.38-.41h0c1.75-1.6,5.81-2.24,6.31-2.6a3.88,3.88,0,0,1,.33-.23h0l.06,0,.11-.07h0a8.52,8.52,0,0,1,3-1.18l.25,0h.15l.34,0h0l.37.21h0l.82.44h0l1,.56.21.12h0l.48.26c0,.14,0,.28,0,.42A5.6,5.6,0,0,1,563.58,171.43Z" transform="translate(0.19 1.35)"/><path class="cls-12" d="M567.46,169.54a3.66,3.66,0,0,1-1.51.62,5.94,5.94,0,0,1-1.52,0,4.44,4.44,0,0,1-.49-.07c-.15,0-.22-.2-.25-.41a3.3,3.3,0,0,1,0-.55,3.47,3.47,0,0,0,0-.81.09.09,0,0,0,0,0,2.19,2.19,0,0,1-1.42-.17h0a2.53,2.53,0,0,1-1-.85l-.08-.13a.89.89,0,0,1-.14-.32l-.11-.49,0-.14c-.13-.61.5-1,1-1.11l1-.16,0-.3a.33.33,0,0,1,.34-.32h.05l.94.18h0l.24,0a2.41,2.41,0,0,1,.33-.21,3.56,3.56,0,0,1,1.59.1,2.53,2.53,0,0,1,1.75,1.94C568.33,167.24,568.68,168.66,567.46,169.54Z" transform="translate(0.19 1.35)"/><path class="cls-12" d="M568.53,168.07a2.6,2.6,0,0,1-1,1.51,2.91,2.91,0,0,1-.68.35,5.82,5.82,0,0,1-2.38.45,1.66,1.66,0,0,1-.76-.24l-.13-.1a1.29,1.29,0,0,1-.17-.16l-.15-.23c0-.07-.05-.13-.07-.19h0c-.24-.75.08-1,.52-1.11h0a3.27,3.27,0,0,1,.54,0l.24,0s0,0,0,0a3,3,0,0,1,.42.09l-.35-.15-.09,0-.16-.07a3.93,3.93,0,0,1-.39-.18,4.88,4.88,0,0,1-.09-.62l.11,0,.41-.09.37-.07c.44-.09.82-.16,1.14-.24,1-.28,1.32-.75.61-2.53h0c0-.56,1.67-1.18,2.17,2.19A3.51,3.51,0,0,1,568.53,168.07Z" transform="translate(0.19 1.35)"/><path class="cls-12" d="M564.77,168.82c-.47.08-1.07-.21-1.12-.52s.33-.33.79-.42c.31,0,.73-.21.88.11S565.45,168.7,564.77,168.82Z" transform="translate(0.19 1.35)"/><path class="cls-12" d="M551.61,178.44a12.18,12.18,0,0,1-5.49,0l0-.33-.12-1.06-.46-3.82c.63-.15,1.26-.28,1.85-.38,1.14-.21,2.15-.36,2.81-.55h0a19.36,19.36,0,0,0,1,4.9C551.29,177.66,551.45,178.07,551.61,178.44Z" transform="translate(0.19 1.35)"/><path class="cls-12" d="M550.73,177.56h0Z" transform="translate(0.19 1.35)"/><path class="cls-12" d="M572,172.13c0,.07,0,.15-.05.23a3.58,3.58,0,0,1-1.33,2.13,2.5,2.5,0,0,1-.53.3,9.14,9.14,0,0,0-1.27.46,2.57,2.57,0,0,0-.76.78l-.42.62a4.17,4.17,0,0,1-2.47,1.39c-.87.21-1.79.31-2.58.44-1.71.29-3.54-.25-5.26-.41l-.3,0a9.59,9.59,0,0,1-1-.2,19.5,19.5,0,0,0-2.82-.64,4.64,4.64,0,0,1,1-1.18c2.33-2.07,6.57-2.54,8.43-5a4.25,4.25,0,0,1,1-.87l.16-.12a11.47,11.47,0,0,1,2.93-1.46,3.58,3.58,0,0,0,1.16-.42,1.83,1.83,0,0,0,.47-.45l.29-.39h0c.91-1.28,1-1.4,1.67-2.35a10,10,0,0,1,1.28,3.33c0,.16.07.32.11.49.08.37.16.76.22,1.15A7,7,0,0,1,572,172.13Z" transform="translate(0.19 1.35)"/><path class="cls-21" d="M571.92,178.27c0,.23,0,.46,0,.7h0a8.71,8.71,0,0,0-2.74-.2,11.65,11.65,0,0,1-1.45.12c-.8,0-1.59-.26-2.39-.32a5.07,5.07,0,0,0-2.81.59c-.24.12-.49.32-.47.58a3.93,3.93,0,0,0-2.23-.62,1.6,1.6,0,0,0-1.06.62,19.42,19.42,0,0,1-.41,4.67l-.12.81a11.63,11.63,0,0,0,0,3.58,5.89,5.89,0,0,0,.4,1.34c-.27-.44-.53-.88-.77-1.34a8.35,8.35,0,0,1-1.05-3.58c-.07-.86,0-1.73-.1-2.6a21.88,21.88,0,0,0-.36-2.9c-.1-.54-.2-1.11-.27-1.67a1.36,1.36,0,0,1,0-.2,4.93,4.93,0,0,1,0-.54,5.46,5.46,0,0,1,1.25.48l.15.08.18.1h0c1.12-.18,2.61,0,3.72-.23l2.34-.46,2.17-.42a2.69,2.69,0,0,0,.91-.29c.83-.49,1-1.67,1.64-2.37a8.36,8.36,0,0,1,1-.75c1.55-1.16,2-3.26,2.22-5.18,0,0,0-.07,0-.1.12.22.23.44.32.65a5.33,5.33,0,0,1,0,4.66v-1.1a3.58,3.58,0,0,1-1.33,2.13,2.76,2.76,0,0,1,.73-.07c-.05.06-.1.13-.16.19s-.11.29-.21.39a.9.9,0,0,1-.3.17,5.07,5.07,0,0,0-1.54.56,3.54,3.54,0,0,0-.73,1.14,1.39,1.39,0,0,1-.83.75.72.72,0,0,1,0-.32A12,12,0,0,1,568,176l-.42.62a4.17,4.17,0,0,1-2.47,1.39h2.14v0l.7,0c.94,0,1.88,0,2.83-.05l.33,0,.77-.05V178C571.91,178.11,571.92,178.19,571.92,178.27Z" transform="translate(0.19 1.35)"/><path class="cls-12" d="M558.81,190.33a18.44,18.44,0,0,1-9.52-1.8c-1.7-.92-3.16-2.24-4.86-3.17-3.81-2.1-8.38-2-12.73-2.15a25,25,0,0,1-7.79-1.15,17.11,17.11,0,0,0-2.18-.77,11.36,11.36,0,0,0-3.9,0,27.47,27.47,0,0,0-5.55,1.13,5.24,5.24,0,0,1-3.22.52,23,23,0,0,1-.73-6.57c.05-1,.17-2.1.35-3.33.58-.34,1.27.15,1.82.55,2.57,1.85,5.5.44,8.64,0s6.29-1.28,9.43-.89c.65.08,1.3.21,1.95.34s1.08.2,1.63.26a22.38,22.38,0,0,0,5.71-.32l4.5-.64h.1l3.54-.51,1.46-.21a19.62,19.62,0,0,0,4.79-1.23c1.91,3.05,4.88,5.6,5.55,9.13a19.52,19.52,0,0,1-.07,5.12c0,.13,0,.25,0,.38A8,8,0,0,0,558.81,190.33Z" transform="translate(0.19 1.35)"/><path class="cls-21" d="M551.15,172.4l-2.84.28a41.29,41.29,0,0,0-7.43,1.22,6,6,0,0,1-1.31.28A6.79,6.79,0,0,1,538,174a37,37,0,0,0-4.47-.16,7.18,7.18,0,0,1-3-.72c.54.1,1.08.2,1.63.26a22.38,22.38,0,0,0,5.71-.32l4.5-.64h.1c1.17-.17,2.34-.38,3.49-.63a3.7,3.7,0,0,1,1.19-.14l.32.05a8.65,8.65,0,0,1,1,.35A6.48,6.48,0,0,0,551.15,172.4Z" transform="translate(0.19 1.35)"/><path class="cls-21" d="M558.81,190.33a18.44,18.44,0,0,1-9.52-1.8c-1.7-.92-3.16-2.24-4.86-3.17-3.81-2.1-8.38-2-12.73-2.15a25,25,0,0,1-7.79-1.15,17.11,17.11,0,0,0-2.18-.77,11.36,11.36,0,0,0-3.9,0,27.47,27.47,0,0,0-5.55,1.13,5.24,5.24,0,0,1-3.22.52,23,23,0,0,1-.73-6.57c.18.41.34.83.53,1.21a5.18,5.18,0,0,0,3.64,2.76,9.14,9.14,0,0,0,3.67-.24c-.82-.67-2-.72-3.08-1.06a5.2,5.2,0,0,1-3.47-4,7.18,7.18,0,0,0,3.46,3.22,21.55,21.55,0,0,0,4.61,1.4l.4.09c.27,0,.54-.08.82-.1l.75,0c-1-.33-2.09-.55-3.11-.89a5.69,5.69,0,0,1-3.42-2.54,26.55,26.55,0,0,0,6.58,3c.82.21,1.65.33,2.48.52h.06c2.27,0,4.52-.41,6.79-.58a12.73,12.73,0,0,1,6.67.93,48.86,48.86,0,0,0-10.93,1c5.06,2.26,11.09.12,16.42,1.61a33.77,33.77,0,0,1,5.71,2.53,13.75,13.75,0,0,0,6,1.72,6.89,6.89,0,0,0,2.53-.48,7.32,7.32,0,0,0,.69-2.68,18,18,0,0,0-.84-5.53,21.32,21.32,0,0,1,1.63,6.27c0,.33.09.66.11,1a4.31,4.31,0,0,0,.74-.8c0,.13,0,.25,0,.38A8,8,0,0,0,558.81,190.33Z" transform="translate(0.19 1.35)"/><path class="cls-21" d="M530.39,181a8.16,8.16,0,0,0,4.82.52c1.62-.22,3.21-.68,4.84-.84a27.14,27.14,0,0,1,5.69.26l4.75.55a21.3,21.3,0,0,0-5.29-1.68C540.26,179.11,535.3,181.82,530.39,181Z" transform="translate(0.19 1.35)"/><path class="cls-12" d="M560.31,171.51,552.92,174l-1-2.52,7-2.84a1.55,1.55,0,0,1,2.12.73S561.69,171,560.31,171.51Z" transform="translate(0.19 1.35)"/><path class="cls-12" d="M559,168.56,555.75,170l1,2.75,3.63-1.12C562.32,170.89,561.74,167.53,559,168.56Z" transform="translate(0.19 1.35)"/><path class="cls-12" d="M552.71,174.1a11.73,11.73,0,0,1-6.44-.3l-.47-1.4,6.4-1h0a1.36,1.36,0,0,1,1.55,1.07v0a.43.43,0,0,1,0,.11A1.35,1.35,0,0,1,553,174,2.35,2.35,0,0,1,552.71,174.1Z" transform="translate(0.19 1.35)"/><path class="cls-12" d="M545.8,172.4l-2.24.15a1.49,1.49,0,0,0-1.07.54l-1.1,1.29a.23.23,0,0,0,0,.25h0a.23.23,0,0,0,.35.07l1.47-1.18,2,.43,1-.16Z" transform="translate(0.19 1.35)"/><path class="cls-21" d="M562.74,168.2a3,3,0,0,0-.51-.07h0c-.19,0-.39,0-.58-.06a1.43,1.43,0,0,1-.68-.29l.2-.36.07-.14-.08-.13a.89.89,0,0,1-.14-.32l-.11-.49a4.51,4.51,0,0,1,.49.64l.08.13A3.61,3.61,0,0,0,562.74,168.2Z" transform="translate(0.19 1.35)"/><path class="cls-21" d="M570.4,166.1a2,2,0,0,0-.09-1.19l-1.68,2.36c-.78,1.1-3.24,1.13-4.4,1.81a12.25,12.25,0,0,0-1.32.95,25.33,25.33,0,0,0-2.55.7c-.88.32-1.71.75-2.59,1.09a24.68,24.68,0,0,1-2.94.84c-1.51.37-3,.74-4.56,1a6.22,6.22,0,0,1-2.58-.05,7.17,7.17,0,0,0-1-.3,17.57,17.57,0,0,0-1.77.07,11.91,11.91,0,0,0-1.19-.09,2.75,2.75,0,0,0-1.65,1,8.25,8.25,0,0,1-1.39,1.38,5.78,5.78,0,0,0,1.57-.69,6.84,6.84,0,0,1,.86-.53,4.5,4.5,0,0,1,2.55-.11l2.31.35a18.47,18.47,0,0,1,2.07.41c.84.25,1.65.63,2.51.82a5.56,5.56,0,0,0,2.69,0c.53-.2.53-.75.86-.21a15.6,15.6,0,0,1,1.29,2.41,6.41,6.41,0,0,0,0-1.75.89.89,0,0,1,.29-.9,1,1,0,0,1,.45-.08,5.42,5.42,0,0,1,2.49.61l-1.77-1.42.31-.16a15.6,15.6,0,0,1,3.18.57c-.68-.37-1.34-.79-2-1.22a10.48,10.48,0,0,0,1.67-1.1,6.24,6.24,0,0,1,3.35-.82,3.73,3.73,0,0,1-1.83-.91c.2-.25.4-.51.62-.74a11.16,11.16,0,0,1,5.19-.64,4,4,0,0,1-1.79-.82,14.38,14.38,0,0,0,2.17-.22c-.35,0-.52-.45-.49-.8C569.31,166.88,570.37,166.89,570.4,166.1Z" transform="translate(0.19 1.35)"/><path class="cls-12" d="M560.84,165.82s1-2.24,3-1.49c0,0,0,2-.64,2.24A2,2,0,0,1,560.84,165.82Z" transform="translate(0.19 1.35)"/><ellipse class="cls-10" cx="335.99" cy="238.82" rx="9.5" ry="3.03"/><path class="cls-12" d="M526.41,249.36a7.26,7.26,0,0,0,3.25.82h3.66l.34,0h.45l.59,0h.21a1.87,1.87,0,0,0,.34,0l.63-.13A.2.2,0,0,0,536,250a.1.1,0,0,0,0,0s0,0,0-.06v-.12c0-.19,0-.51,0-.85,0-.11,0-.22,0-.33s0-.16,0-.24h0a11.54,11.54,0,0,0-.15-1.26v0a4.75,4.75,0,0,1-.27-.68,2.25,2.25,0,0,1-.11-.8.66.66,0,0,1,0-.14l-.92-.06-1.08-.08h-.1l-1.15-.07a1.69,1.69,0,0,1-.23.42,3.8,3.8,0,0,1-1.3,1l-.18.08h0c-.37.13-1,.2-1.56.36l-.42.11a4.26,4.26,0,0,0-1.75.63c-.33.22-.32.7-.41,1.27v0A.2.2,0,0,0,526.41,249.36Z" transform="translate(0.19 1.35)"/><path class="cls-12" d="M529.18,230.52c0,.26,1.05,9.8,1.35,16.46h0l3.63,1.08,1.85.55h0c.79-4.57.34-12-.16-15.2-.09-.57-.18-1.09-.26-1.54-.24-1.26-.43-2.05-.45-2.12a2.77,2.77,0,0,0-.57-1.18,3,3,0,0,0-2.11-1.13,2.92,2.92,0,0,0-.51,0h-.06a3,3,0,0,0-2,1,2.84,2.84,0,0,0-.57,1c0,.05,0,.1,0,.15A2.9,2.9,0,0,0,529.18,230.52Z" transform="translate(0.19 1.35)"/><path class="cls-12" d="M533,233.11h0l2.29-.11,2.14-.09,4.11-.18c2.7-.12,5-.23,5.11-.25,6.33-.72,2.8-8.76,2.58-8.81l-.18-.1.18.1-5.41,1.78-6.65.54c-5.63.46-4.91.39-5.32.49a3.58,3.58,0,0,0-2.75,2.85,1.24,1.24,0,0,0,0,.33A3.48,3.48,0,0,0,533,233.11Z" transform="translate(0.19 1.35)"/><path class="cls-12" d="M540.45,207.93a3.52,3.52,0,0,1-2,.67l-1.71-5.46c.35-.1,2.21-1,3.59-1.71l1.57,3.46.22.49a.07.07,0,0,1,.06,0C542.58,205.64,541.27,207.39,540.45,207.93Z" transform="translate(0.19 1.35)"/><path class="cls-12" d="M535.15,199.63a6.68,6.68,0,0,0-.14.84c.08.28.17.52.17.52l-.11.21-.51,1a.46.46,0,0,0,.29.63l.09,0,.31.11a.49.49,0,0,1,0,.11c0,.16,0,.42-.08.68h0c0,.31-.09.65-.11.86s0,.21,0,.21a2.39,2.39,0,0,0,.24,1.12,1.11,1.11,0,0,0,.94.64l.91,0h.11a3.42,3.42,0,0,0,2.82-3s0-.09,0-.13h.07a1.05,1.05,0,0,1,.24,0c.65.14,1.46.64,1.55.07.12-.72,1-1.74,1.13-2.69.08-2.11-.53-3.17-1.36-3.69l-.17-.11a6.1,6.1,0,0,0-2.53-.5,3.61,3.61,0,0,0-3.29,1.74h0A4.91,4.91,0,0,0,535.15,199.63Z" transform="translate(0.19 1.35)"/><path class="cls-12" d="M541.75,204.53c-2.91.43-1.07-2.74-1.07-2.74s-.68,0-.93.23c-.37,0-.59,0-.89,0,.09-3.62.86-4.26-3.18-3.69-.71-.87-.49-2.46,3.76-2.23,2.13.12,3.89,1.48,3.93,3.61C543.39,200.94,543.47,201.64,541.75,204.53Z" transform="translate(0.19 1.35)"/><path class="cls-12" d="M541.15,202.1c0,.67-.67,1.39-1.1,1.36s-.35-.57-.31-1.23c0-.44,0-1.08.45-1.18S541.22,201.12,541.15,202.1Z" transform="translate(0.19 1.35)"/><path class="cls-12" d="M550.13,229.94l-.92.31a8.29,8.29,0,0,1-3.54.47,5.35,5.35,0,0,1-3.35-2.21,12,12,0,0,1-1.08-1.62c-.19-.34-.38-.69-.56-1s-.24-.52-.36-.78a1.19,1.19,0,0,1-.08-.2,32.25,32.25,0,0,1-1.33-3.72c-.19-.68-.37-1.35-.52-2-.26-1.1-.46-2.12-.6-3-.11-.69-.17-1.28-.21-1.73v0a12,12,0,0,1,.6-5.06c.15-.47.27-.74.27-.74a4.66,4.66,0,0,0,1.65-1,10.43,10.43,0,0,0,2-2.2h0s3.35-.06,5.16,2.18a3.41,3.41,0,0,1,.47.82,13,13,0,0,1,.64,2.17c.16.71.31,1.5.44,2.34.57,3.45,1,7.62,1.66,10l.2.72a0,0,0,0,1,0,0h0C551,226.52,551.21,227.93,550.13,229.94Z" transform="translate(0.19 1.35)"/><path class="cls-12" d="M527.9,249.36a7.26,7.26,0,0,0,3.25.82h3.66l.33,0h.45l.6,0h.21l.34,0,.63-.13a.2.2,0,0,0,.12-.08v0a.11.11,0,0,0,0-.06.41.41,0,0,0,0-.12c0-.19,0-.51,0-.85l0-.33a1.94,1.94,0,0,0,0-.24h0c0-.58-.11-1.13-.14-1.26v0c0-.08-.16-.33-.26-.68a2.25,2.25,0,0,1-.11-.8v-.14l-.92-.06-1.07-.08h-.1l-1.16-.07a1.67,1.67,0,0,1-.22.42,3.84,3.84,0,0,1-1.31,1l-.18.08h0c-.37.13-1,.2-1.56.36l-.42.11a4.26,4.26,0,0,0-1.75.63c-.33.22-.32.7-.41,1.27v0A.19.19,0,0,0,527.9,249.36Z" transform="translate(0.19 1.35)"/><path class="cls-12" d="M530.67,230.52v.09c0,.32.16,1.48.32,3.13.33,3.43.83,8.93,1,13.24h0l2.2.65,1.43.43,1.85.55h0c.79-4.57.33-12-.17-15.2l-.06-.42c-.07-.4-.13-.78-.19-1.12l-.06-.32c-.21-1.07-.37-1.73-.39-1.8a2.83,2.83,0,0,0-.57-1.18,2.71,2.71,0,0,0-.6-.57,3,3,0,0,0-1.51-.56,3,3,0,0,0-.52,0h0a3,3,0,0,0-2.55,2c0,.05,0,.1-.05.15A2.86,2.86,0,0,0,530.67,230.52Z" transform="translate(0.19 1.35)"/><path class="cls-12" d="M551.64,230.08a3.16,3.16,0,0,1-.46.87h0a3.43,3.43,0,0,1-.69.68h0l-.1.07h0a2.39,2.39,0,0,1-.34.21,5.38,5.38,0,0,1-1.86.54l-.81.06-4.14.18h-.16l-1.73.07h-.14l-2.25.1-1.68.07-.45,0-.89.05-1.4,0h0a4,4,0,0,1-1.87-.32,4,4,0,0,1-.46-.24,3.37,3.37,0,0,1-1.5-1.94,3,3,0,0,1-.09-1c0-.1,0-.22,0-.33a3.6,3.6,0,0,1,2.76-2.85c.41-.11-.31,0,5.31-.48.6-.06,1.25-.1,2-.16h0l4.67-.39,1.39-.46.69-.23,3.28-1.08h0l0,0a8.1,8.1,0,0,1,.88,2.33c.09.38.17.79.23,1.21A6.21,6.21,0,0,1,551.64,230.08Z" transform="translate(0.19 1.35)"/><path class="cls-12" d="M535.26,206.44c.42.49,1.19.44,1.83.37a4.29,4.29,0,0,0,1.73-.47,2.88,2.88,0,0,0,1.33-2.37,4.78,4.78,0,0,0-.77-2.69c-.28.51-.91.7-1.33,1.1a3.44,3.44,0,0,0-.79,1.57c-.07.24-.07.47-.32.53a.4.4,0,0,1-.46-.35,1.3,1.3,0,0,0-1.23-1.2C535.11,202.94,534.64,205.71,535.26,206.44Z" transform="translate(0.19 1.35)"/><path class="cls-22" d="M534.22,247.63l1.43.43,1.85.55h0c.79-4.57.33-12-.17-15.2l-.06-.42,1.68-.07,2.25-.1h.14l1.73-.07h.16l4.14-.19.81-.05a5.38,5.38,0,0,0,1.86-.54,3.7,3.7,0,0,0,.44-.28h0a3.38,3.38,0,0,0,1.14-1.57,6.21,6.21,0,0,0,.23-2.88,5.54,5.54,0,0,1-1.68,2.25,8.24,8.24,0,0,1-4.29,1.22l-8.88.87-1.18.12.09,1.39A37.64,37.64,0,0,1,534.22,247.63Z" transform="translate(0.19 1.35)"/><path class="cls-22" d="M551.64,226l0,2.65a4.51,4.51,0,0,1-.43,2.31h0a1.35,1.35,0,0,1-.2.27,2.05,2.05,0,0,1-.6.5h0a5.44,5.44,0,0,1-2.91.38,107.12,107.12,0,0,0-14.88.2h-.05a3.64,3.64,0,0,1,2.57-2.12c2.07-.7,4.28-.86,6.38-1.44.28-.07.56-.16.83-.25a7.31,7.31,0,0,0,4.37-3.41.54.54,0,0,0,0-.11,8.57,8.57,0,0,0,.65-3.37,23.93,23.93,0,0,0-2.83-12l4.28,3.23c.57,3.45,1,7.62,1.66,10l.2.72a0,0,0,0,1,0,0h0l0,0A8.1,8.1,0,0,1,551.64,226Z" transform="translate(0.19 1.35)"/><path class="cls-12" d="M551.54,234.29h-.33v-1h.33a1.53,1.53,0,0,0,1.53-1.37L555,215.62a2.74,2.74,0,0,1,2.72-2.42h2.07v1h-2.06a1.74,1.74,0,0,0-1.71,1.52L554.1,232A2.57,2.57,0,0,1,551.54,234.29Z" transform="translate(0.19 1.35)"/><polygon class="cls-12" points="535.05 250.41 534.02 250.41 534.02 234.61 551.91 234.61 551.91 242.16 550.89 242.16 550.89 235.63 535.05 235.63 535.05 250.41"/><path class="cls-12" d="M552.09,217.18,550.63,230a1.35,1.35,0,0,1-1.35,1.2H534.44a2.31,2.31,0,0,0-2.31,2.31v0h19a2,2,0,0,0,2-1.77L555,215.48l-.68-.09A2,2,0,0,0,552.09,217.18Z" transform="translate(0.19 1.35)"/><path class="cls-12" d="M536.07,249.07a3.94,3.94,0,1,1-3.94-3.94A3.93,3.93,0,0,1,536.07,249.07Z" transform="translate(0.19 1.35)"/><path class="cls-12" d="M532.13,246.07a3,3,0,1,1-3,3,3,3,0,0,1,3-3Zm0-1.18a4.18,4.18,0,1,0,4.18,4.18,4.18,4.18,0,0,0-4.18-4.18Z" transform="translate(0.19 1.35)"/><path class="cls-12" d="M533.07,248.13a1.33,1.33,0,0,1-1.88,1.88A1.33,1.33,0,0,1,533.07,248.13Z" transform="translate(0.19 1.35)"/><rect class="cls-12" x="550.79" y="228.5" width="0.78" height="23.81" transform="translate(-49.37 215.28) rotate(-21.04)"/><rect class="cls-12" x="539.27" y="240.02" width="23.81" height="0.78" transform="translate(107.85 647.81) rotate(-66.04)"/><rect class="cls-12" x="539.27" y="240.02" width="23.81" height="0.78" transform="matrix(0.93, -0.36, 0.36, 0.93, -49.37, 215.3)"/><rect class="cls-12" x="550.79" y="228.5" width="0.78" height="23.81" transform="translate(107.84 647.8) rotate(-66.04)"/><path class="cls-12" d="M562.68,245.52a12.56,12.56,0,1,1-6.37-16.58A12.57,12.57,0,0,1,562.68,245.52ZM541.3,236a10.84,10.84,0,1,0,14.31-5.51A10.84,10.84,0,0,0,541.3,236Z" transform="translate(0.19 1.35)"/><path class="cls-12" d="M563.17,235.81A12.8,12.8,0,0,0,550,227.65a12.62,12.62,0,0,0-1.81.29,12.82,12.82,0,1,0,14.94,7.87Zm-7.78,15.48a11.65,11.65,0,1,1,6.69-15.06A11.66,11.66,0,0,1,555.39,251.29Z" transform="translate(0.19 1.35)"/><path class="cls-12" d="M552.43,237.67a3,3,0,1,1-4,1.53A3,3,0,0,1,552.43,237.67Z" transform="translate(0.19 1.35)"/><path class="cls-12" d="M551.73,239.21a1.33,1.33,0,0,1-1.08,2.43A1.33,1.33,0,0,1,551.73,239.21Z" transform="translate(0.19 1.35)"/><rect class="cls-12" x="558.76" y="214.23" width="5.91" height="1.71" rx="0.62"/><path class="cls-12" d="M550.27,225.34l1.8.46s3.47-8.69,3.5-8.91c.15-.9-.05-1.07-.44-1.79-.25-.48-3,1.49-3.89,1.64A86.11,86.11,0,0,0,550.27,225.34Z" transform="translate(0.19 1.35)"/><path class="cls-12" d="M551.21,217l-8.2-6.92a2.26,2.26,0,0,1-.3-3.17l0,0a2.23,2.23,0,0,1,3.15-.34l.34.27,8.9,8.3Z" transform="translate(0.19 1.35)"/><path class="cls-12" d="M550.31,225.08l-.27,2.57a12.62,12.62,0,0,0-1.81.29,4.7,4.7,0,0,1,1-1.22A3.44,3.44,0,0,0,550.31,225.08Z" transform="translate(0.19 1.35)"/><path class="cls-12" d="M552,230a.71.71,0,0,1,.18-.12,1.69,1.69,0,0,1,.23,0c.18,0,.25-.24.29-.42.07-.35.13-.7.19-1.05a2.83,2.83,0,0,0,0-.71,3.5,3.5,0,0,0-.38-.95,2.82,2.82,0,0,1-.26-1.4c-.54,0-1.46.08-2,0a23,23,0,0,0-1.2,4.44.57.57,0,0,0,0,.34.41.41,0,0,0,.47.12,4.75,4.75,0,0,1,.49-.17c.27,0,.55.1.82,0a2.57,2.57,0,0,1,.54-.16C551.61,230,551.8,230.07,552,230Z" transform="translate(0.19 1.35)"/><path class="cls-23" d="M325.41,197.85l.83-1.46c.59.43,1.22.86,1.82,1.33l-.94,1.46c.18.75-1.12,3-1.12,3a5.71,5.71,0,0,1-2.64-1.35l.57-1.38S325,197.73,325.41,197.85Z" transform="translate(0.19 1.35)"/><rect class="cls-23" x="318.7" y="219.57" width="14.29" height="1.78"/><path class="cls-23" d="M317,236.59l4.5-31.47a3.67,3.67,0,0,1,3.47-3.35h1.57a3.66,3.66,0,0,1,3.46,3.35l4.51,31.47,1.54-.29-4.5-31.47a5.3,5.3,0,0,0-5-4.85H325a5.3,5.3,0,0,0-5,4.85l-4.51,31.47Z" transform="translate(0.19 1.35)"/><path class="cls-23" d="M333.89,237.64h2.69l-.31-1.66a.66.66,0,0,0-.62-.57h-1a.66.66,0,0,0-.63.64Z" transform="translate(0.19 1.35)"/><path class="cls-23" d="M317.56,237.64h-2.69l.31-1.66a.66.66,0,0,1,.62-.57h1a.67.67,0,0,1,.64.64Z" transform="translate(0.19 1.35)"/><path class="cls-23" d="M323.85,202.55h0a.51.51,0,0,1-.36-.64l.37-1.15c.27-1,.84-.68.68.25l-.24,1.15C324.24,202.46,324.11,202.6,323.85,202.55Z" transform="translate(0.19 1.35)"/><path class="cls-23" d="M324.7,202.88h0a.52.52,0,0,1-.43-.61l.28-1.24c.18-1.11.8-.81.72.17l-.14,1.22C325.1,202.74,325,202.9,324.7,202.88Z" transform="translate(0.19 1.35)"/><path class="cls-23" d="M325.4,202.9h0a.51.51,0,0,1-.43-.61l.27-1.23c.18-1.12.8-.82.72.17l-.13,1.21C325.8,202.76,325.68,202.93,325.4,202.9Z" transform="translate(0.19 1.35)"/><path class="cls-23" d="M326.12,202.76h0a.43.43,0,0,1-.37-.52l.23-1.06c.16-1,.69-.69.62.15l-.12,1C326.46,202.64,326.36,202.78,326.12,202.76Z" transform="translate(0.19 1.35)"/><path class="cls-23" d="M324,198.94a4.06,4.06,0,0,1-1.18,1.27c-.41.27-.34,1,.73.42a3.76,3.76,0,0,0,1.11-.78c.51.43,1.64-.07,2.11-1.45l-1.06-.76C324.89,197.5,324.23,198.36,324,198.94Z" transform="translate(0.19 1.35)"/><rect class="cls-23" x="319.81" y="210.32" width="6.39" height="1.8"/><rect class="cls-23" x="317.14" y="229.23" width="6.49" height="1.8"/><path class="cls-23" d="M330.3,192.71l0,0a2,2,0,0,0,2.41-1.59l1.9-8.11a2.31,2.31,0,0,0-1.38-2.77h0a2,2,0,0,0-2.4,1.59L328.92,190A2.31,2.31,0,0,0,330.3,192.71Z" transform="translate(0.19 1.35)"/><path class="cls-23" d="M327.41,199.38l-2.27-1.8,3.83-7.77a1.82,1.82,0,0,1,2.71-.7l0,0a2.46,2.46,0,0,1,.61,3.11Z" transform="translate(0.19 1.35)"/><path class="cls-23" d="M334,237.53a3.94,3.94,0,0,0,2.26-.27v-.6l-2.39-.34Z" transform="translate(0.19 1.35)"/><path class="cls-23" d="M336.24,236.66c-4.24,1.3-5.61,1.41-7.37.67l-.05-.76,7.35-.84Z" transform="translate(0.19 1.35)"/><path class="cls-23" d="M336.19,236c-1.34,1-6.62,1.46-7.37.55,0-.87,1.76-.82,3.79-2.82C335.42,231,335.91,233.43,336.19,236Z" transform="translate(0.19 1.35)"/><path class="cls-23" d="M331.13,220.05l1.24,11.52.07.57.17,1.59a2.42,2.42,0,0,0,3.08-.24h0l0-1.78v-.6l-.18-11.34c-.83.12-1.18.21-2,.28A8.81,8.81,0,0,1,331.13,220.05Z" transform="translate(0.19 1.35)"/><path class="cls-23" d="M335.66,231.35l0,2.14a2.44,2.44,0,0,1-3.09.25l-.22-2.06A5.55,5.55,0,0,0,335.66,231.35Z" transform="translate(0.19 1.35)"/><path class="cls-23" d="M332.37,231.57l.07.57a5.5,5.5,0,0,0,.91.08,5.67,5.67,0,0,0,2.32-.51v-.6A5.08,5.08,0,0,1,332.37,231.57Z" transform="translate(0.19 1.35)"/><path class="cls-23" d="M340.08,237.53a3.94,3.94,0,0,0,2.26-.27v-.6l-2.39-.34Z" transform="translate(0.19 1.35)"/><path class="cls-23" d="M342.34,236.66c-4.24,1.3-5.61,1.41-7.37.67l-.05-.76,7.35-.84Z" transform="translate(0.19 1.35)"/><path class="cls-23" d="M342.29,236c-1.34,1-6.62,1.46-7.37.55,0-.87,1.77-.82,3.79-2.82C341.52,231,342,233.43,342.29,236Z" transform="translate(0.19 1.35)"/><path class="cls-23" d="M337.24,220.05l1.23,11.52.07.57.17,1.59a2.43,2.43,0,0,0,3.09-.24h0l0-1.78v-.6l-.18-11.34c-.83.12-1.18.21-2,.28A8.73,8.73,0,0,1,337.24,220.05Z" transform="translate(0.19 1.35)"/><path class="cls-23" d="M341.76,231.35l0,2.14a2.44,2.44,0,0,1-3.09.25l-.22-2.06A5.55,5.55,0,0,0,341.76,231.35Z" transform="translate(0.19 1.35)"/><path class="cls-23" d="M338.47,231.57l.07.57a5.5,5.5,0,0,0,.91.08,5.64,5.64,0,0,0,2.32-.51v-.6A5.08,5.08,0,0,1,338.47,231.57Z" transform="translate(0.19 1.35)"/><path class="cls-23" d="M328.3,201.7c6.25,2.8,12.49,1.62,17.47-1l-2.52-15.1c-.53-5.25-4-8.94-7.29-8.94h-.12c-2.56,0-3.5,1.26-4.87,3.86C329.45,183.38,331,193,328.3,201.7Z" transform="translate(0.19 1.35)"/><path class="cls-23" d="M347.78,227.5h0l-.14.06c-.43.17-.85.33-1.28.48s-1.13.39-1.7.56a28.28,28.28,0,0,1-2.89.71c-.5.1-1,.18-1.47.25a26.07,26.07,0,0,1-4,.25c-.47,0-.93,0-1.4-.08s-.94-.09-1.4-.16a22.13,22.13,0,0,1-3.73-.86c-.52-.16-1-.35-1.56-.55s-1-.44-1.55-.68l-.9-.46-.23-.12,4.18-26.29,3.45.11,4.76.17,6.94.24v0l2.92,26Z" transform="translate(0.19 1.35)"/><path class="cls-23" d="M336.49,201.9a15.93,15.93,0,0,1-6.07-1.38c-.48-.24-.93-.5-1.39-.77,1.88-8.13.72-16.58,2.09-19.24s2.25-3.86,4.76-3.86H336c3.23,0,6.59,3.69,7.11,8.94L345.28,199A14.65,14.65,0,0,1,336.49,201.9Z" transform="translate(0.19 1.35)"/><path class="cls-23" d="M332.61,179.48a42.27,42.27,0,0,0-.5,7.79,46.24,46.24,0,0,1-1.79,15.2,19.35,19.35,0,0,1-2-.77c2.67-8.69,1.15-18.32,2.67-21.19a8.56,8.56,0,0,1,2.3-3.14A8,8,0,0,0,332.61,179.48Z" transform="translate(0.19 1.35)"/><path class="cls-23" d="M345.77,200.69c-.31.17-.63.33-.95.48a22.47,22.47,0,0,1-5.95,1.89c-.4.05-.79.11-1.19.15l.09-.84c0-.49.08-1,.1-1.47a88.1,88.1,0,0,0-.36-9.89c0-.53-.07-1-.1-1.57-.14-2.65-.85-9.77,1.68-11.71a10.86,10.86,0,0,1,4.16,7.86l1.48,8.87Z" transform="translate(0.19 1.35)"/><path class="cls-23" d="M336.18,170.35a2.62,2.62,0,0,0,3.22-2.09,3,3,0,0,0-2.31-3.32,2.61,2.61,0,0,0-3.22,2.09A3,3,0,0,0,336.18,170.35Z" transform="translate(0.19 1.35)"/><path class="cls-23" d="M331.16,172.7h0c.21-.13.44-.05.64.19L332,176l-.07.06c-.41.28-.9-.24-1.11-1.17A2.38,2.38,0,0,1,331.16,172.7Z" transform="translate(0.19 1.35)"/><path class="cls-23" d="M331.24,172.7a6.72,6.72,0,0,0,.25,1.82.11.11,0,0,0,0,0,18.1,18.1,0,0,0,.71,3.65c.37.71,1.32,1.12,1.9,1.58a2.24,2.24,0,0,0,2.67-.07c1-.54,1.5-.63,2.06-1.63a6.66,6.66,0,0,0,.67-1.93c0-.16.07-.32.1-.48.06-.31.12-.62.17-.91a6.39,6.39,0,0,0,.36-2.13c0-3-2-5.44-4.54-5.44S331.24,169.69,331.24,172.7Z" transform="translate(0.19 1.35)"/><path class="cls-23" d="M331.25,173c-.69-4.09,2.1-7,4.45-5.88C336,170.4,332.57,172.88,331.25,173Z" transform="translate(0.19 1.35)"/><path class="cls-23" d="M339.67,172.93l.79.09c.85-4.09-2.09-7-5.64-6.14C334.55,170.11,337.48,173.71,339.67,172.93Z" transform="translate(0.19 1.35)"/><path class="cls-23" d="M340.54,172.71h0a.77.77,0,0,0-.84.23l-.31,3.16.08,0c.52.26,1.18-.3,1.48-1.24S341.06,173,340.54,172.71Z" transform="translate(0.19 1.35)"/><path class="cls-24" d="M340.7,212.79l1,16.53,0,.45.48-.05c.76-.17,1.55-.38,2.44-.64l-.06-.47c.57-.17,1.13-.36,1.7-.56l-3.23-14.61-.08,0Z" transform="translate(0.19 1.35)"/><path class="cls-24" d="M325.71,227q.45.24.9.45c.51.25,1,.48,1.55.69l2.08-16.38v.06Z" transform="translate(0.19 1.35)"/><path class="cls-24" d="M329.72,228.72a23.18,23.18,0,0,0,3.73.87c.46.06.93.12,1.4.16s.94.06,1.4.07v.43a23.76,23.76,0,0,0,4.13-.19l-.11-.49L337,215l-.26,1.43v.08l-1.91,12.74-.95-8.21-.64-5.49-1.73,1Z" transform="translate(0.19 1.35)"/><path class="cls-23" d="M336.24,230.25a23.76,23.76,0,0,0,4.13-.19c.62-.08,1.23-.19,1.88-.34s1.55-.38,2.44-.64l-.06-.47L343,213.42l-.24-2.22-5.84,1.1-.16,4.16v0l-.53,13.34Z" transform="translate(0.19 1.35)"/><path class="cls-23" d="M326.46,227.68c.31.18.62.35.94.51h0a15.1,15.1,0,0,0,2.18.9,16.24,16.24,0,0,0,3.83.7l0-.66.46-8.52.44-8.36-3.75-2.51-.36,1.59v.06L326.61,227Z" transform="translate(0.19 1.35)"/><path class="cls-25" d="M347.78,228.78c0-.4-.11-.8-.17-1.21-1.36-9.5-3.57-20.7-7.6-23.41a6.49,6.49,0,0,0-1.14-1.1,5.78,5.78,0,0,0-1.1-.69,42.22,42.22,0,0,0-4.66-1.64l-.87-.3a37.44,37.44,0,0,0,5.27-9.42,31.43,31.43,0,0,0,1.85-7.74l5.37,11.19,1,6.23c-.31.17-.63.33-.95.48l2.92,26v.37Z" transform="translate(0.19 1.35)"/><path class="cls-23" d="M334.36,199.07h0c-.14-.3-.81-.18-1.06,0a11.9,11.9,0,0,1-2.69,1.51c-.27.11-.53.22-.49.54a.65.65,0,0,0,.87.36,10.22,10.22,0,0,0,3.14-1.52A.75.75,0,0,0,334.36,199.07Z" transform="translate(0.19 1.35)"/><rect class="cls-23" x="324.64" y="219.57" width="14.29" height="1.78"/><path class="cls-23" d="M322.93,236.59l4.51-31.47a3.66,3.66,0,0,1,3.46-3.35h1.57a3.67,3.67,0,0,1,3.47,3.35l4.5,31.47,1.55-.29-4.51-31.47a5.3,5.3,0,0,0-5-4.85H330.9a5.3,5.3,0,0,0-5,4.85l-4.5,31.47Z" transform="translate(0.19 1.35)"/><path class="cls-23" d="M339.83,237.64h2.7l-.31-1.66a.67.67,0,0,0-.63-.57h-1a.67.67,0,0,0-.63.64Z" transform="translate(0.19 1.35)"/><path class="cls-23" d="M323.51,237.64h-2.7l.31-1.66a.68.68,0,0,1,.63-.57h1a.67.67,0,0,1,.63.64Z" transform="translate(0.19 1.35)"/><path class="cls-23" d="M333.33,199.57h0a.44.44,0,0,0-.67.12L331.37,202c-.62,1,.05,1.51.65.54l1.45-2.15A.67.67,0,0,0,333.33,199.57Z" transform="translate(0.19 1.35)"/><path class="cls-23" d="M334,200.66h0a.45.45,0,0,0-.7,0l-1.52,2.19c-.56.76.09,1.4.58.73l1.7-2.14A.62.62,0,0,0,334,200.66Z" transform="translate(0.19 1.35)"/><path class="cls-23" d="M334.91,201.18h0a.44.44,0,0,0-.68,0l-1.66,2.11a.57.57,0,0,0,0,.75s.28.27.6-.1l1.82-2A.61.61,0,0,0,334.91,201.18Z" transform="translate(0.19 1.35)"/><path class="cls-23" d="M335.31,202.17h0a.38.38,0,0,0-.59,0l-1.2,1.33c-.16.2-.34.59-.17.77,0,0,.31.31.66-.13l1.2-1.21C335.35,202.76,335.48,202.35,335.31,202.17Z" transform="translate(0.19 1.35)"/><path class="cls-23" d="M334.22,202.84c-.49.58-1.05,0-.82-.61-.39.47-1-.07-.77-.6-.38.46-1-.19-.73-.68l.62-.91.12-.15.31-.49c.51-.67,1.75-1.06,2.32-.46l.7.72c.58.59.24,2.07-.28,2.74l-1.07,1.18C334.46,203.78,333.79,203.46,334.22,202.84Z" transform="translate(0.19 1.35)"/><path class="cls-23" d="M340.77,193.78h0a2.15,2.15,0,0,0,1.93-2.29l-.12-8.4a2.11,2.11,0,0,0-2-2.22h0a2.15,2.15,0,0,0-1.93,2.29l.12,8.4A2.12,2.12,0,0,0,340.77,193.78Z" transform="translate(0.19 1.35)"/><path class="cls-23" d="M336.41,200.76l-2.09-2.11,4.88-8.18a1.8,1.8,0,0,1,2.74-.47l0,0a2.49,2.49,0,0,1,.42,3.16Z" transform="translate(0.19 1.35)"/><ellipse class="cls-10" cx="465.34" cy="248.48" rx="13.97" ry="5.18"/><path class="cls-26" d="M488.53,195.83l.7-.63h0c-.08-.05-1.62-1.25-1.75-1.33a2.13,2.13,0,0,0-1.71-.23l-.33.12-1.6-.41c-.63,1.3-1.27,2.62-2,3.88.71.38,1.53.79,1.61.87l0,.37L485,200a.47.47,0,0,0,.12-.32l.05.15a.65.65,0,0,0,.33.36.67.67,0,0,0,.5,0l.27-.09a.7.7,0,0,0,.45-.68l.14.37a.54.54,0,0,0,.07.13,10.08,10.08,0,0,0,1.32-1s0,0,0,0a16.88,16.88,0,0,0,1.27-1.16l.48-.47Z" transform="translate(0.19 1.35)"/><path class="cls-26" d="M482.88,202.15a1.09,1.09,0,0,0,1.09-1.09,2.93,2.93,0,0,1,5.2-1.76,4.08,4.08,0,0,1,.59,2.68c0,2.12,0,4.25,0,6.37V248.8h2.18V202a6.2,6.2,0,0,0-1-4,5.11,5.11,0,0,0-9.11,3.08A1.09,1.09,0,0,0,482.88,202.15Z" transform="translate(0.19 1.35)"/><path class="cls-26" d="M487.72,197.67a.75.75,0,0,1,.44-.95l.13,0a.75.75,0,0,1,.57,0,.69.69,0,0,1,.38.42l.52,1.41a.7.7,0,0,1-.42.89l-.26.09a.65.65,0,0,1-.83-.38Z" transform="translate(0.19 1.35)"/><path class="cls-26" d="M488.3,199.76a.74.74,0,0,1-.39.37l-.26.09a.65.65,0,0,1-.76-.24.54.54,0,0,1-.07-.13l-.14-.37-.55-1.45a.75.75,0,0,1-.05-.26.67.67,0,0,1,.07-.31.71.71,0,0,1,.42-.38l.13-.05a.73.73,0,0,1,.94.43l.08.2v0l.5,1.31.09.23s0,0,0,.05A.62.62,0,0,1,488.3,199.76Z" transform="translate(0.19 1.35)"/><path class="cls-26" d="M486.68,199.48a.7.7,0,0,1-.45.68l-.27.09a.67.67,0,0,1-.5,0,.65.65,0,0,1-.33-.36l-.05-.15-.48-1.31s0-.06,0-.1a.74.74,0,0,1,.46-.85l.13,0a.71.71,0,0,1,.57,0,.73.73,0,0,1,.34.33l.05.09.51,1.41A.49.49,0,0,1,486.68,199.48Z" transform="translate(0.19 1.35)"/><path class="cls-26" d="M485.08,199.72a.47.47,0,0,1-.12.32.51.51,0,0,1-.26.19l-.22.08a.51.51,0,0,1-.67-.28l-.41-1.12a.51.51,0,0,1,0-.45.65.65,0,0,1,.34-.29l.11,0a.59.59,0,0,1,.69.18l.08.14.39,1.09A.38.38,0,0,1,485.08,199.72Z" transform="translate(0.19 1.35)"/><path class="cls-26" d="M489.42,196.78l-.05-1.23a.48.48,0,0,0-.14-.35h0c-.07-.06-1.61-1.26-1.74-1.34a2.13,2.13,0,0,0-1.71-.23l-.33.11-1.6-.4c-.35.72-.7,1.44-1.06,2.16l1.08.33c1.41,1.85,3.55.2,3.55.2l.2.15a.4.4,0,0,1,.17.32l0,.65a1,1,0,0,0,1.05,1H489a.48.48,0,0,0,.45-.5Z" transform="translate(0.19 1.35)"/><rect class="cls-26" x="467.22" y="173.07" width="6.67" height="18.9" rx="3.3" transform="translate(-33.63 165.42) rotate(-19.11)"/><path class="cls-26" d="M484.4,192.81l-10-6.9a3.3,3.3,0,0,0-4.54,1.12l0,.05a3.3,3.3,0,0,0,1.11,4.54L481.46,198C481.6,198.07,484.25,193.13,484.4,192.81Z" transform="translate(0.19 1.35)"/><path class="cls-26" d="M468,248.65a5.93,5.93,0,0,1-2.92-.3v-.68l3.08-.38Z" transform="translate(0.19 1.35)"/><path class="cls-26" d="M465.09,247.67c5.48,1.46,9.55,1.63,11.82.79l.07-.85-11.8-1Z" transform="translate(0.19 1.35)"/><path class="cls-26" d="M465.15,246.94c1.73,1.06,10.86,1.69,11.83.67,0-1.94-4-1-6.6-3.24C466.74,241.24,465.23,246,465.15,246.94Z" transform="translate(0.19 1.35)"/><path class="cls-26" d="M470,231.14h-.08a3.85,3.85,0,0,1-4.28-3.36l-2-23.32,7.72-.93,2,23.32A3.85,3.85,0,0,1,470,231.14Z" transform="translate(0.19 1.35)"/><path class="cls-26" d="M469.78,224.06h.08a3.84,3.84,0,0,1,3.51,4.15L472,244.8l-7.74,2,1.37-19.26A3.85,3.85,0,0,1,469.78,224.06Z" transform="translate(0.19 1.35)"/><path class="cls-26" d="M472.72,196.81c0,.28,0,.57,0,.86a36.81,36.81,0,0,1-11.54,2.52,26.35,26.35,0,0,1-8.66-1l0-1.07-.36-9.33-.47-12.17c.68-5.11,5.67-11.15,11.59-11.15h.21c4.58,0,8.25,4.16,8.07,9.17C471.16,183.1,473.13,187.34,472.72,196.81Z" transform="translate(0.19 1.35)"/><path class="cls-26" d="M458.59,247.29l-.06.43-.07.65,0,.28-.53,0a4.91,4.91,0,0,1-2.4-.33v-.68l1.64-.2h0l.61-.08Z" transform="translate(0.19 1.35)"/><path class="cls-26" d="M467.39,247.61l-.07.86c-1.84.67-4.86.69-8.86-.1l-.61-.14c-.75-.16-1.53-.35-2.35-.56l.07-.73v-.07l0-.25h0l2.07.18Z" transform="translate(0.19 1.35)"/><path class="cls-26" d="M467.39,247.61c-.69.72-5.51.62-8.86.11l-.76-.13c-.22,0-.43-.08-.63-.12h0a5.72,5.72,0,0,1-1.57-.53v-.07c0-.07,0-.16.05-.25a.06.06,0,0,1,0,0,5,5,0,0,1,1.8-3c.82-.5,1.93-.5,3.36.74a5.63,5.63,0,0,0,.88.62C464.22,246.45,467.39,245.87,467.39,247.61Z" transform="translate(0.19 1.35)"/><path class="cls-26" d="M462.31,209.5a22.66,22.66,0,0,1-3.8-.11l-.73-.08a5.34,5.34,0,0,1-3.44-1.83c-2.79-3.24-2-9.5-2-9.5l.15.11c2.27,1.61,5.5,2,8.85,1.8a33.23,33.23,0,0,0,11.43-3.08S474.35,208.74,462.31,209.5Z" transform="translate(0.19 1.35)"/><path class="cls-26" d="M463.79,227.67h0a3.85,3.85,0,0,1-3.37,3.46h-.08a3.78,3.78,0,0,1-1.9-.26,3.83,3.83,0,0,1-2.37-3.1l0-.21h0l-1.71-20.09-.25-3,5.65-.67,2.06-.25.51,6,1.47,17.36A3.66,3.66,0,0,1,463.79,227.67Z" transform="translate(0.19 1.35)"/><path class="cls-26" d="M463.79,228.22l-1.38,16.58-.74.19-4.05,1.07-2,.52-1,.25,1.38-19.25h0a3.82,3.82,0,0,1,3.4-3.49,4.54,4.54,0,0,1,.74,0h.08a3.85,3.85,0,0,1,3.52,3.6h0A3.25,3.25,0,0,1,463.79,228.22Z" transform="translate(0.19 1.35)"/><polygon class="cls-26" points="469.63 182.35 460.72 170.15 468.73 170.52 469.63 182.35"/><path class="cls-26" d="M470.87,160.67l-.05,0a1.06,1.06,0,0,0-1.13.29l-.33,4.16.11.07c.71.36,1.59-.36,2-1.6S471.58,161,470.87,160.67Z" transform="translate(0.19 1.35)"/><path class="cls-26" d="M470.8,162.12a7.67,7.67,0,0,0,.61-1.39,7,7,0,0,0,0-1.66c-.37-2.08-1.37-2.35-1.82-2.28.12.41.92,1.1.71,1.45a1,1,0,0,1-.52.43.53.53,0,0,0-.24.62,15.44,15.44,0,0,1,.13,5.34c.23.25.61.09.79-.23a2.43,2.43,0,0,0,.19-1.12A3.39,3.39,0,0,1,470.8,162.12Z" transform="translate(0.19 1.35)"/><path class="cls-26" d="M470.13,163.91a5.83,5.83,0,0,1,.29-1.75,7.32,7.32,0,0,0,.34-2.16c0-3.47-2.76-5.39-6.16-5.39s-6.17,1.92-6.17,5.39a7.6,7.6,0,0,0,.64,2.95l0,.23a10.53,10.53,0,0,0,1.66,5.73c1,1.32,1.54.67,3,1.52a3.41,3.41,0,0,0,3.59-.2c.73-.76,1.34-.64,1.81-1.42A9.53,9.53,0,0,0,470.13,163.91Z" transform="translate(0.19 1.35)"/><path class="cls-26" d="M458.89,162.12a6.51,6.51,0,0,1-.79-1.39,15.06,15.06,0,0,1,0-1.66c0-1.93.65-2.14,1.23-2.07a1.32,1.32,0,0,0,.19,1.24,1.3,1.3,0,0,0,.67.43.5.5,0,0,1,.32.62,11.89,11.89,0,0,0-.17,5.34.73.73,0,0,1-1-.23,1.88,1.88,0,0,1-.26-1.12A2.64,2.64,0,0,0,458.89,162.12Z" transform="translate(0.19 1.35)"/><path class="cls-26" d="M457.58,160.81l.06,0a1.33,1.33,0,0,1,1.28.31l.46,4.18-.12.07c-.79.34-1.8-.39-2.26-1.64S456.8,161.16,457.58,160.81Z" transform="translate(0.19 1.35)"/><path class="cls-27" d="M461.45,199.55l-.16.34a2.8,2.8,0,0,0-.15.3,26.19,26.19,0,0,0-1.4,3.6,36.7,36.7,0,0,0-.29,20.29,26.56,26.56,0,0,0,.92,2.64,11.34,11.34,0,0,0-1.93,4.17,42.13,42.13,0,0,0-1,12.74c.05.8.1,1.61.19,2.43a6.37,6.37,0,0,0,.07.74c0,.19,0,.39.06.59a1.5,1.5,0,0,0,0,.2c0,.21.05.43.08.64s0,.29,0,.45a4.91,4.91,0,0,1-2.4-.33v-.68l.07-.73v-.07l0-.25h0a.06.06,0,0,1,0,0l-1,.25,1.38-19.25h0l-1.71-20.09c-2.79-3.24-2-9.5-2-9.5l.15.11-.36-9.33,5.39-12.13C457.07,184.93,457.76,193.25,461.45,199.55Z" transform="translate(0.19 1.35)"/><path class="cls-26" d="M453.87,199.24h0a.74.74,0,0,1,1,.29,23,23,0,0,0,3,3.94.79.79,0,0,1,0,1.08h0a.73.73,0,0,1-1.07,0,25,25,0,0,1-3.14-4.11A.9.9,0,0,1,453.87,199.24Z" transform="translate(0.19 1.35)"/><path class="cls-26" d="M454.72,200.74h0a.69.69,0,0,1,.85.5l1.45,5.45a.69.69,0,0,1-.49.85h0a.7.7,0,0,1-.85-.5l-1.45-5.45A.7.7,0,0,1,454.72,200.74Z" transform="translate(0.19 1.35)"/><path class="cls-26" d="M453.51,201.71h0a.73.73,0,0,1,.9.49l1.44,5.45a.72.72,0,0,1-.53.87h0a.71.71,0,0,1-.89-.48L453,202.57A.71.71,0,0,1,453.51,201.71Z" transform="translate(0.19 1.35)"/><path class="cls-26" d="M452,201.57h0a.71.71,0,0,1,.87.49l1.44,5.46a.7.7,0,0,1-.51.85h0a.71.71,0,0,1-.87-.49l-1.44-5.46A.71.71,0,0,1,452,201.57Z" transform="translate(0.19 1.35)"/><path class="cls-26" d="M450.86,202.43h0a.61.61,0,0,1,.75.44l.94,3.64a.62.62,0,0,1-.44.76h0a.62.62,0,0,1-.76-.44l-.94-3.64A.63.63,0,0,1,450.86,202.43Z" transform="translate(0.19 1.35)"/><rect class="cls-26" x="450.28" y="196.95" width="3.6" height="3.73" transform="translate(-35.67 123.91) rotate(-14.86)"/><path class="cls-26" d="M451.44,204.68h0a.61.61,0,0,0,.44-.75l.06.21a.7.7,0,0,0,.86.5h0a.7.7,0,0,0,.49-.86l.06.21a.69.69,0,0,0,.85.49h0a.69.69,0,1,1,1.34-.36h0a.7.7,0,0,0,.49-.86l-.36-1.38-.07-.25-.36-1.37a2.05,2.05,0,0,0-2.51-1.46l-1.33.35a2.05,2.05,0,0,0-1.46,2.51l.36,1.38.07.25.25,1A.63.63,0,0,0,451.44,204.68Z" transform="translate(0.19 1.35)"/><rect class="cls-26" x="442.83" y="177.67" width="18.9" height="6.67" rx="3.3" transform="translate(89.15 506.88) rotate(-63.58)"/><path class="cls-26" d="M449.24,200.85l5.63-2-2.29-12.58a3.3,3.3,0,0,0-3.87-2.61h-.07a3.3,3.3,0,0,0-2.61,3.87Z" transform="translate(0.19 1.35)"/></g></g></svg>