<svg id="Layer_3" enable-background="new 0 0 64 64" height="512" viewBox="0 0 64 64" width="512" xmlns="http://www.w3.org/2000/svg"><g><circle cx="22" cy="23" fill="#f4b2b0" r="2"/><circle cx="36" cy="29" fill="#f4b2b0" r="4"/><circle cx="26" cy="38" fill="#f4b2b0" r="5"/><circle cx="39.5" cy="40.5" fill="#f4b2b0" r="2.5"/><circle cx="42" cy="22" fill="#f4b2b0" r="2"/><g fill="#b3404a"><path d="m60 24h-.5c-1.878 0-3.672.897-4.8 2.4-.529.705-1.284 1.196-2.118 1.433-.558-2.76-1.673-5.401-3.273-7.727l1.338-1.338c.495-.496 1.153-.768 1.853-.768 1.234 0 2.395-.48 3.268-1.354l.939-.939c.188-.187.293-.442.293-.707v-.171c0-2.091-.814-4.057-2.293-5.536s-3.444-2.293-5.536-2.293h-.171c-.265 0-.52.105-.707.293l-.939.939c-.874.873-1.354 2.034-1.354 3.268 0 .7-.272 1.358-.768 1.854l-1.338 1.338c-2.326-1.6-4.967-2.715-7.727-3.273.237-.834.728-1.589 1.433-2.118 1.503-1.129 2.4-2.923 2.4-4.801v-.5c0-.334-.167-.646-.445-.832-2.127-1.418-4.603-2.168-7.16-2.168h-.79c-2.557 0-5.033.75-7.16 2.168-.278.186-.445.498-.445.832v.5c0 1.878.897 3.672 2.4 4.8.705.529 1.196 1.284 1.433 2.118-2.76.558-5.401 1.673-7.727 3.273l-1.338-1.338c-.496-.495-.768-1.153-.768-1.853 0-1.234-.48-2.395-1.354-3.268l-.939-.939c-.187-.188-.442-.293-.707-.293h-.171c-2.091 0-4.057.814-5.536 2.293s-2.293 3.444-2.293 5.536v.171c0 .265.105.52.293.707l.939.939c.873.874 2.034 1.354 3.268 1.354.7 0 1.358.272 1.854.768l1.338 1.338c-1.6 2.326-2.715 4.967-3.273 7.727-.835-.238-1.59-.728-2.119-1.433-1.128-1.503-2.922-2.4-4.8-2.4h-.5c-.334 0-.646.167-.832.445-1.418 2.127-2.168 4.603-2.168 7.16v.79c0 2.557.75 5.033 2.168 7.16.186.278.498.445.832.445h.5c1.878 0 3.672-.897 4.8-2.4.529-.705 1.284-1.196 2.118-1.433.558 2.76 1.673 5.401 3.273 7.727l-1.338 1.338c-.495.496-1.153.768-1.853.768-1.234 0-2.395.48-3.268 1.354l-.939.939c-.188.187-.293.442-.293.707v.171c0 2.091.814 4.057 2.293 5.536s3.444 2.293 5.536 2.293h.171c.265 0 .52-.105.707-.293l.939-.939c.874-.873 1.354-2.034 1.354-3.268 0-.7.272-1.358.768-1.854l1.338-1.338c2.326 1.6 4.967 2.715 7.727 3.273-.237.834-.728 1.589-1.433 2.118-1.503 1.127-2.4 2.921-2.4 4.8v.501c0 .334.167.646.445.832 2.127 1.418 4.603 2.168 7.16 2.168h.79c2.557 0 5.033-.75 7.16-2.168.278-.186.445-.498.445-.832v-.5c0-1.878-.897-3.672-2.4-4.8-.705-.529-1.196-1.284-1.433-2.118 2.76-.558 5.401-1.673 7.727-3.273l1.338 1.338c.496.495.768 1.153.768 1.853 0 1.234.48 2.395 1.354 3.268l.939.939c.187.188.442.293.707.293h.171c2.091 0 4.057-.814 5.536-2.293s2.293-3.444 2.293-5.536v-.171c0-.265-.105-.52-.293-.707l-.939-.939c-.873-.874-2.034-1.354-3.268-1.354-.7 0-1.358-.272-1.854-.768l-1.338-1.338c1.6-2.326 2.715-4.967 3.273-7.727.834.237 1.589.728 2.118 1.433 1.127 1.503 2.921 2.4 4.8 2.4h.501c.334 0 .646-.167.832-.445 1.418-2.127 2.168-4.603 2.168-7.16v-.79c0-2.557-.75-5.033-2.168-7.16-.186-.278-.498-.445-.832-.445zm1 8.395c0 1.985-.534 3.912-1.55 5.605-1.234-.016-2.408-.611-3.15-1.6-1.127-1.503-2.921-2.4-4.8-2.4-1.833 0-3.609.538-5.135 1.555l-.92.613 1.109 1.664.92-.613c.933-.622 1.986-1.007 3.086-1.15-.579 2.644-1.727 5.158-3.36 7.331-.299.398-.259.956.093 1.308l1.938 1.938c.874.874 2.035 1.354 3.269 1.354.7 0 1.358.272 1.854.768l.642.642c-.059 1.467-.658 2.839-1.702 3.883s-2.416 1.644-3.883 1.702l-.642-.642c-.497-.495-.769-1.153-.769-1.853 0-1.234-.48-2.395-1.354-3.268l-1.938-1.938c-.352-.352-.909-.392-1.308-.093-2.173 1.633-4.687 2.78-7.331 3.36.143-1.1.528-2.153 1.15-3.086l.613-.92-1.664-1.109-.613.92c-1.017 1.525-1.555 3.301-1.555 5.134 0 1.878.897 3.672 2.4 4.8.989.742 1.584 1.916 1.6 3.15-1.693 1.016-3.62 1.55-5.604 1.55h-.79c-1.985 0-3.912-.534-5.605-1.55.016-1.234.611-2.408 1.6-3.15 1.503-1.127 2.4-2.921 2.4-4.8 0-1.833-.538-3.609-1.555-5.135l-.613-.92-1.664 1.109.613.92c.622.933 1.007 1.986 1.15 3.086-2.644-.579-5.158-1.727-7.331-3.36-.399-.299-.957-.259-1.308.093l-1.938 1.938c-.875.874-1.355 2.035-1.355 3.269 0 .7-.272 1.358-.768 1.854l-.642.642c-1.467-.059-2.839-.658-3.883-1.702s-1.644-2.416-1.702-3.883l.642-.642c.495-.497 1.153-.769 1.853-.769 1.234 0 2.395-.48 3.268-1.354l1.938-1.938c.352-.352.392-.91.093-1.308-1.633-2.173-2.78-4.687-3.36-7.331 1.1.143 2.153.528 3.086 1.15l.92.613 1.109-1.664-.92-.613c-1.525-1.017-3.301-1.555-5.134-1.555-1.878 0-3.672.897-4.8 2.4-.742.989-1.916 1.584-3.15 1.6-1.016-1.694-1.55-3.621-1.55-5.605v-.79c0-1.984.534-3.911 1.55-5.605 1.234.016 2.408.611 3.15 1.6 1.127 1.503 2.921 2.4 4.8 2.4 1.833 0 3.609-.538 5.135-1.555l.92-.613-1.109-1.664-.92.613c-.933.622-1.986 1.007-3.086 1.15.579-2.644 1.727-5.158 3.36-7.331.299-.398.259-.956-.093-1.308l-1.938-1.938c-.874-.874-2.035-1.354-3.269-1.354-.7 0-1.358-.272-1.854-.768l-.641-.642c.059-1.467.658-2.839 1.702-3.883s2.416-1.644 3.883-1.702l.642.642c.496.495.768 1.153.768 1.853 0 1.234.48 2.395 1.354 3.268l1.938 1.938c.351.352.909.392 1.308.093 2.173-1.633 4.687-2.78 7.331-3.36-.143 1.1-.528 2.153-1.15 3.086l-.613.92 1.664 1.109.613-.92c1.017-1.525 1.555-3.301 1.555-5.134 0-1.878-.897-3.672-2.4-4.8-.989-.742-1.584-1.916-1.6-3.15 1.694-1.016 3.621-1.55 5.605-1.55h.79c1.984 0 3.911.534 5.605 1.55-.016 1.234-.611 2.408-1.6 3.15-1.503 1.127-2.4 2.921-2.4 4.8 0 1.833.538 3.609 1.555 5.135l.613.92 1.664-1.109-.613-.92c-.622-.933-1.007-1.986-1.15-3.086 2.644.579 5.158 1.727 7.331 3.36.399.299.956.259 1.308-.093l1.938-1.938c.874-.874 1.354-2.035 1.354-3.269 0-.7.272-1.358.768-1.854l.642-.642c1.467.059 2.839.658 3.883 1.702s1.644 2.416 1.702 3.883l-.642.642c-.495.497-1.153.769-1.853.769-1.234 0-2.395.48-3.268 1.354l-1.938 1.938c-.352.352-.392.91-.093 1.308 1.633 2.173 2.78 4.687 3.36 7.331-1.1-.143-2.153-.528-3.086-1.15l-.92-.613-1.109 1.664.92.613c1.525 1.017 3.301 1.555 5.134 1.555 1.878 0 3.672-.897 4.8-2.4.742-.989 1.916-1.584 3.15-1.6 1.016 1.693 1.55 3.62 1.55 5.604z"/><path d="m25 23c0-1.654-1.346-3-3-3s-3 1.346-3 3 1.346 3 3 3 3-1.346 3-3zm-4 0c0-.551.449-1 1-1s1 .449 1 1-.449 1-1 1-1-.449-1-1z"/><path d="m41 29c0-2.757-2.243-5-5-5s-5 2.243-5 5 2.243 5 5 5 5-2.243 5-5zm-8 0c0-1.654 1.346-3 3-3s3 1.346 3 3-1.346 3-3 3-3-1.346-3-3z"/><path d="m26 32c-3.309 0-6 2.691-6 6s2.691 6 6 6 6-2.691 6-6-2.691-6-6-6zm0 10c-2.206 0-4-1.794-4-4s1.794-4 4-4 4 1.794 4 4-1.794 4-4 4z"/><path d="m39.5 37c-1.93 0-3.5 1.57-3.5 3.5s1.57 3.5 3.5 3.5 3.5-1.57 3.5-3.5-1.57-3.5-3.5-3.5zm0 5c-.827 0-1.5-.673-1.5-1.5s.673-1.5 1.5-1.5 1.5.673 1.5 1.5-.673 1.5-1.5 1.5z"/><path d="m42 19c-1.654 0-3 1.346-3 3s1.346 3 3 3 3-1.346 3-3-1.346-3-3-3zm0 4c-.551 0-1-.449-1-1s.449-1 1-1 1 .449 1 1-.449 1-1 1z"/></g></g></svg>